<svg xmlns="http://www.w3.org/2000/svg" xmlns:xlink="http://www.w3.org/1999/xlink" viewBox="0 0 24 24">
  <defs>
    <path d="M12 1c6.075 0 11 4.925 11 11s-4.925 11-11 11S1 18.075 1 12 5.925 1 12 1zm0 2a9 9 0 100 18 9 9 0 000-18zm-.707 11.293a1 1 0 111.414 1.414 1 1 0 01-1.414-1.414zM12 7a1 1 0 011 1v4a1 1 0 01-2 0V8a1 1 0 011-1z" id="a"/>
  </defs>
  <g fill="none" fill-rule="evenodd">
    <mask id="b" fill="#fff">
      <use xlink:href="#a"/>
    </mask>
    <use fill="#000" fill-rule="nonzero" xlink:href="#a"/>
    <g mask="url(#b)" fill="#21242A">
      <path d="M0 0h24v24H0z"/>
    </g>
  </g>
</svg>
