<svg width="24" height="24" xmlns="http://www.w3.org/2000/svg" xmlns:xlink="http://www.w3.org/1999/xlink"><defs><path d="M12 0a8 8 0 014.861 14.354l1.13 8.514a1 1 0 01-1.505.99L12 21.165l-4.486 2.691a1 1 0 01-1.505-.989l1.13-8.513A8 8 0 0112 0zm0 16a7.978 7.978 0 01-2.985-.575l-.75 5.65 3.22-1.932a1 1 0 011.03 0l3.22 1.932-.749-5.65A7.978 7.978 0 0112 16zm0-14a6 6 0 103.19 11.082.784.784 0 01.137-.088A6 6 0 0012 2z" id="a"/></defs><g fill="none" fill-rule="evenodd"><mask id="b" fill="#fff"><use xlink:href="#a"/></mask><use fill="#000" fill-rule="nonzero" xlink:href="#a"/><g mask="url(#b)" fill="#21242A"><path d="M0 0h24v24H0z"/></g></g></svg>
