<?xml version="1.0" encoding="UTF-8"?>
<svg xmlns="http://www.w3.org/2000/svg" xmlns:xlink="http://www.w3.org/1999/xlink" viewBox="0 0 24 24">
  <title>Close</title>
  <defs>
    <path d="M5.293 5.293a1 1 0 011.414 0L12 10.585l5.293-5.292a1 1 0 011.32-.083l.094.083a1 1 0 010 1.414L13.415 12l5.292 5.293a1 1 0 01.083 1.32l-.083.094a1 1 0 01-1.414 0L12 13.415l-5.293 5.292a1 1 0 01-1.32.083l-.094-.083a1 1 0 010-1.414L10.585 12 5.293 6.707a1 1 0 01-.083-1.32z" id="path-1"/>
  </defs>
  <g id="icon/x" stroke="none" stroke-width="1" fill="none" fill-rule="evenodd">
    <mask id="mask-2" fill="#fff">
      <use xlink:href="#path-1"/>
    </mask>
    <use id="Combined-Shape" fill="#000" fill-rule="nonzero" xlink:href="#path-1"/>
    <g id="Group" mask="url(#mask-2)" fill="#21242A">
      <g id="COLOR/-black">
        <path id="Color/Black" d="M0 0h24v24H0z"/>
      </g>
    </g>
  </g>
</svg>
