<svg xmlns="http://www.w3.org/2000/svg" viewBox="0 0 250 200">
  <g fill="none" fill-rule="evenodd">
    <path fill="#EFF3FA" d="M202 74a7 7 0 110 14h-40a7 7 0 110 14h22a7 7 0 110 14h-10.174c-4.874 0-8.826 3.134-8.826 7 0 2.577 2 4.91 6 7a7 7 0 110 14H88a7 7 0 110-14H49a7 7 0 110-14h40a7 7 0 100-14H64a7 7 0 110-14h40a7 7 0 110-14h98zm0 28a7 7 0 110 14 7 7 0 010-14z" opacity=".499"/>
    <path fill="#FFF" stroke="#D5DFED" stroke-width="2.5" d="M146 88.25a2.744 2.744 0 012.742 2.545l.008.205v61a.745.745 0 01-.22.53.744.744 0 01-.408.21l-.122.01h-45a.745.745 0 01-.53-.22.744.744 0 01-.21-.408l-.01-.122v-18.303l-1.293.045c-4.38.008-7.925-1.746-10.493-4.563-2.609-2.861-4.214-6.816-4.214-11.179s1.605-8.318 4.214-11.179c2.485-2.726 5.885-4.457 9.658-4.566l.378-.005 1.75.053V91a2.744 2.744 0 012.545-2.742l.205-.008h41zm-45.501 20l-.293.006c-2.247.087-4.285 1.175-5.773 2.923-1.485 1.746-2.416 4.154-2.416 6.821s.93 5.075 2.416 6.82c1.553 1.825 3.705 2.93 6.067 2.93.202 0 .402-.008.6-.024h0l1.15-.092v-19.268l-1.15-.092-.299-.018-.302-.006z"/>
    <path stroke="#E3EBF7" stroke-linecap="round" stroke-linejoin="round" stroke-width="2.5" d="M141 120.182v4.743m0-28.743V114.5"/>
    <path stroke="#D5DFED" stroke-linecap="round" stroke-linejoin="round" stroke-width="2.5" d="M67.128 146.5H74m107.128 0H184m-30 0h22.428M80 146.5h21.454"/>
    <path stroke="#D5DFED" stroke-linecap="round" stroke-width="2.5" d="M128 46c-2.667 4.214-4 7.88-4 11 0 5.556 4.654 8.044 4.654 14.063 0 3.055-1.551 6.088-4.654 9.1M116 57c-.873 5.513 3 6.532 3 11.475 0 2.508-1 5.017-3 7.525m18.795-21.526c-1.32 3.42-.579 5.503 0 6.73 1.238 2.622 3.205 4.886 3.205 7.554 0 3.099-1.068 6.081-3.205 8.947"/>
  </g>
</svg>
