<?xml version="1.0" encoding="UTF-8"?>
<svg xmlns="http://www.w3.org/2000/svg" xmlns:xlink="http://www.w3.org/1999/xlink" viewBox="0 0 24 24">
  <title>Credit Card</title>
  <defs>
    <path d="M19.5 5A2.5 2.5 0 0122 7.5v10a2.5 2.5 0 01-2.5 2.5h-15A2.5 2.5 0 012 17.5v-10A2.5 2.5 0 014.5 5h15zm.833 6.666H3.666V17.5c0 .46.374.833.834.833h15c.46 0 .833-.373.833-.833v-5.834zm-.833-5h-15a.833.833 0 00-.833.834L3.666 10h16.667V7.5a.833.833 0 00-.833-.833z" id="path-1"/>
  </defs>
  <g id="icon/credit-card" stroke="none" stroke-width="1" fill="none" fill-rule="evenodd">
    <mask id="mask-2" fill="#fff">
      <use xlink:href="#path-1"/>
    </mask>
    <use id="Combined-Shape" fill="#000" xlink:href="#path-1"/>
    <g id="Group" mask="url(#mask-2)" fill="#21242A">
      <g id="COLOR/-black">
        <path id="Color/Black" d="M0 0h24v24H0z"/>
      </g>
    </g>
  </g>
</svg>
