<?xml version="1.0" encoding="UTF-8"?>
<svg xmlns="http://www.w3.org/2000/svg" xmlns:xlink="http://www.w3.org/1999/xlink" viewBox="0 0 24 24">
  <title>Dashboard</title>
  <defs>
    <path d="M12 3.5c1.575 0 3.096.317 4.522.942.432.19.625.685.43 1.106a.87.87 0 01-1.138.417 9.385 9.385 0 00-2.955-.757v1.258A.848.848 0 0112 7.3a.848.848 0 01-.86-.835V5.209c-2.986.268-5.567 1.917-7.058 4.282l1.2.56c.428.199.608.698.403 1.114a.862.862 0 01-.775.474.877.877 0 01-.371-.082l-1.216-.567a8.757 8.757 0 00.58 7.591l1.06-.503a.87.87 0 011.15.385.825.825 0 01-.396 1.117l-1.762.835a.877.877 0 01-1.091-.286A10.441 10.441 0 011 14.193c0-2.856 1.144-5.542 3.222-7.561C6.299 4.612 9.062 3.5 12 3.5zm8.894 5.88a.87.87 0 011.136.418 10.36 10.36 0 01.97 4.395c0 2.11-.644 4.163-1.864 5.936a.877.877 0 01-1.084.29l-1.804-.836a.825.825 0 01-.407-1.113.87.87 0 011.146-.395l1.107.513a8.765 8.765 0 00.37-8.103.826.826 0 01.43-1.105zm-2.288-2.77a.878.878 0 011.092.1c.292.284.335.73.102 1.061-.876 1.25-5.284 7.52-5.977 8.194a2.609 2.609 0 01-1.823.733c-.66 0-1.32-.245-1.823-.733a2.46 2.46 0 010-3.544c.33-.32 1.957-1.455 3.714-2.65l.837-.567c1.675-1.132 3.3-2.21 3.878-2.593zm-2.86 3.942c-2.253 1.522-4.084 2.792-4.354 3.05a.82.82 0 000 1.182.878.878 0 001.216 0c.266-.262 1.572-2.042 3.138-4.232z" id="path-1"/>
  </defs>
  <g id="icon/dashboard" stroke="none" stroke-width="1" fill="none" fill-rule="evenodd">
    <mask id="mask-2" fill="#fff">
      <use xlink:href="#path-1"/>
    </mask>
    <use id="dashboard" fill="#000" fill-rule="nonzero" xlink:href="#path-1"/>
    <g id="Group" mask="url(#mask-2)" fill="#21242A">
      <g id="COLOR/-black">
        <path id="Color/Black" d="M0 0h24v24H0z"/>
      </g>
    </g>
  </g>
</svg>
