<svg xmlns="http://www.w3.org/2000/svg" xmlns:xlink="http://www.w3.org/1999/xlink" viewBox="0 0 24 24">
  <defs>
    <path d="M16.5 14.47c0 .966-.31 1.742-.929 2.326-.619.585-1.486.925-2.6 1.02V20h-1.452v-2.22a7.78 7.78 0 01-2.322-.652c-.704-.329-1.27-.695-1.697-1.101l.692-1.217c.428.358.932.671 1.512.94.58.268 1.213.45 1.9.545v-3.58a12.127 12.127 0 01-1.436-.393 4.357 4.357 0 01-1.174-.6 2.768 2.768 0 01-.793-.903c-.197-.358-.296-.794-.296-1.307 0-.942.31-1.715.929-2.317.62-.603 1.514-.946 2.685-1.03V4h1.452v2.201c.642.084 1.213.23 1.714.439.5.209.931.438 1.292.689v1.718a8.012 8.012 0 00-1.461-.886 5.785 5.785 0 00-1.63-.474v3.472c.473.107.926.238 1.36.394.433.155.819.36 1.156.617.338.257.606.57.803.94.197.37.295.823.295 1.36zM9.425 9.28c0 .25.053.465.16.644.107.179.26.328.456.447.197.12.428.218.693.296.264.077.554.152.87.223V7.651c-.676.048-1.208.206-1.596.474-.389.269-.583.654-.583 1.155zm3.461 7.051c.653-.048 1.166-.212 1.537-.492.372-.28.557-.683.557-1.208 0-.25-.048-.465-.143-.644a1.227 1.227 0 00-.414-.448c-.18-.12-.4-.224-.658-.313a7.846 7.846 0 00-.879-.242v3.347z" id="a"/>
  </defs>
  <g fill="none" fill-rule="evenodd">
    <mask id="b" fill="#fff">
      <use xlink:href="#a"/>
    </mask>
    <use fill="#2E384D" fill-rule="nonzero" xlink:href="#a"/>
    <g mask="url(#b)" fill="#21242A">
      <path d="M0 0h24v24H0z"/>
    </g>
  </g>
</svg>
