<?xml version="1.0" encoding="UTF-8"?>
<svg xmlns="http://www.w3.org/2000/svg" xmlns:xlink="http://www.w3.org/1999/xlink" viewBox="0 0 24 24">
  <title>View</title>
  <defs>
    <path d="M12 5C7.455 5 3.573 7.903 2 12c1.573 4.097 5.455 7 10 7s8.427-2.903 10-7c-1.573-4.097-5.455-7-10-7zm0 11.667c-2.51 0-4.545-2.091-4.545-4.667 0-2.576 2.036-4.667 4.545-4.667 2.51 0 4.545 2.091 4.545 4.667 0 2.576-2.036 4.667-4.545 4.667zM12 9.2c-1.51 0-2.727 1.25-2.727 2.8 0 1.55 1.218 2.8 2.727 2.8 1.51 0 2.727-1.25 2.727-2.8 0-1.55-1.218-2.8-2.727-2.8z" id="path-1"/>
  </defs>
  <g id="icon/eye-fill" stroke="none" stroke-width="1" fill="none" fill-rule="evenodd">
    <mask id="mask-2" fill="#fff">
      <use xlink:href="#path-1"/>
    </mask>
    <use id="Mask" fill="#000" xlink:href="#path-1"/>
    <g id="Group" mask="url(#mask-2)" fill="#21242A">
      <g id="COLOR/-black">
        <path id="Color/Black" d="M0 0h24v24H0z"/>
      </g>
    </g>
  </g>
</svg>
