<?xml version="1.0" encoding="UTF-8"?>
<svg xmlns="http://www.w3.org/2000/svg" xmlns:xlink="http://www.w3.org/1999/xlink" viewBox="0 0 24 24">
  <defs>
    <path d="M12 5c2.817 0 5.282 1.36 7.379 3.597.72.768 1.346 1.588 1.876 2.41.32.495.54.886.657 1.12a.833.833 0 010 .746c-.117.234-.337.625-.657 1.12-.53.822-1.156 1.642-1.876 2.41C17.282 18.64 14.817 20 12 20c-2.817 0-5.282-1.36-7.379-3.597a17.077 17.077 0 01-1.876-2.41c-.32-.495-.54-.886-.657-1.12a.833.833 0 010-.746c.117-.234.337-.625.657-1.12.53-.822 1.156-1.642 1.876-2.41C6.718 6.36 9.183 5 12 5zm0 1.667c-2.288 0-4.353 1.14-6.163 3.07A15.427 15.427 0 003.784 12.5a15.427 15.427 0 002.053 2.763c1.81 1.93 3.875 3.07 6.163 3.07 2.288 0 4.353-1.14 6.163-3.07a15.427 15.427 0 002.053-2.763 15.427 15.427 0 00-2.053-2.763c-1.81-1.93-3.875-3.07-6.163-3.07zm0 2.5a3.333 3.333 0 110 6.666 3.333 3.333 0 010-6.666zm0 1.666a1.667 1.667 0 100 3.334 1.667 1.667 0 000-3.334z" id="path-1"/>
  </defs>
  <g id="icon/eye" stroke="none" stroke-width="1" fill="none" fill-rule="evenodd">
    <mask id="mask-2" fill="#fff">
      <use xlink:href="#path-1"/>
    </mask>
    <use id="Combined-Shape" fill="#000" fill-rule="nonzero" xlink:href="#path-1"/>
    <g id="Group" mask="url(#mask-2)" fill="#21242A">
      <g id="COLOR/-black">
        <path id="Color/Black" d="M0 0h24v24H0z"/>
      </g>
    </g>
  </g>
</svg>
