<svg xmlns="http://www.w3.org/2000/svg" xmlns:xlink="http://www.w3.org/1999/xlink" viewBox="0 0 24 24">
  <defs>
    <path id="a" d="M14 1c.043 0 .085.003.126.008L14 1a1 1 0 0 1 .25.031l.03.009c.03.009.061.02.091.031l.027.012a.914.914 0 0 1 .227.137l.082.073 6 6c.03.03.057.06.082.093l-.082-.093a1 1 0 0 1 .21.309l.012.027c.012.03.022.06.031.091l.008.03A.921.921 0 0 1 21 8v12a3 3 0 0 1-3 3H6a3 3 0 0 1-3-3V4a3 3 0 0 1 3-3Zm-1 2H6a1 1 0 0 0-1 1v16a1 1 0 0 0 1 1h12a1 1 0 0 0 1-1V9h-5a1 1 0 0 1-.993-.883L13 8V3Zm3 13a1 1 0 0 1 0 2H8a1 1 0 0 1 0-2Zm0-4a1 1 0 0 1 0 2H8a1 1 0 0 1 0-2Zm-6-4a1 1 0 0 1 0 2H8a1 1 0 1 1 0-2Zm5-3.585V7h2.586L15 4.415Z"/>
  </defs>
  <use xlink:href="#a" fill="#000" fill-rule="nonzero"/>
</svg>
