<?xml version="1.0" encoding="UTF-8"?>
<svg width="24px" height="24px" viewBox="0 0 24 24" version="1.1" xmlns="http://www.w3.org/2000/svg" xmlns:xlink="http://www.w3.org/1999/xlink">
    <title>icon/fund</title>
    <defs>
        <path d="M2.41667033,11.5869565 C5.25086194,11.5869565 6.74837511,12.5336522 6.81087566,12.5741304 C6.96004364,12.6707826 7.0308776,12.8508696 6.98754388,13.0218696 L6.941,13.2 L14.5717773,15.0267826 C15.4651074,15.2336217 16.1031431,15.9907805 16.1622996,16.8933783 C16.2953124,16.8527871 16.4292866,16.8108028 16.5626281,16.769 C17.565137,16.455913 18.6026461,16.1304348 19.500154,16.1304348 C21.4443377,16.1304348 21.9576756,17.5901304 21.9785091,17.652087 C22.0426763,17.842913 21.9593423,18.051913 21.7793407,18.1477391 C21.5201717,18.2832174 15.407618,21.5 12.8334287,21.5 C11.0035103,21.5 7.5841988,20.0810676 5.43185807,19.0958231 L5.32086255,19.5363913 C5.27336213,19.7197826 5.10752734,19.8478261 4.91669233,19.8478261 L2.41667033,19.8478261 C2.18666831,19.8478261 2,19.6627826 2,19.4347826 L2,12 C2,11.772 2.18666831,11.5869565 2.41667033,11.5869565 Z M6.736,14.001 L5.63900681,18.2806137 C7.42354469,19.1018527 11.0709242,20.673913 12.8334287,20.673913 C14.8601132,20.673913 19.6376552,18.3137826 21.0118339,17.6124348 C20.7951654,17.3315652 20.3476614,16.9565217 19.500154,16.9565217 C18.7309805,16.9565217 17.755972,17.2613478 16.8126303,17.557087 C15.8101215,17.8701739 14.7726124,18.1956522 13.8751045,18.1956522 C12.1550893,18.1956522 9.87090259,17.3794783 9.77423507,17.3447826 C9.55839984,17.2671304 9.44673219,17.0300435 9.52506621,16.8152609 C9.60340023,16.6013043 9.84173566,16.4897826 10.0592376,16.5682609 C10.0809044,16.5765217 12.3025906,17.3695652 13.8751045,17.3695652 C14.3098427,17.3695652 14.8103357,17.2721876 15.333701,17.134111 L15.3334506,17.0308696 C15.3334506,16.4542609 14.9417805,15.9602609 14.3801089,15.8313913 L6.736,14.001 Z M2.83334067,12.4204783 L2.83334067,19.0217391 L4.59252281,19.0217391 L4.73789688,18.4453711 C4.74179389,18.4207572 4.74798898,18.3962418 4.75658189,18.3721153 L6.0229679,13.4279071 C6.02430092,13.4208828 6.02582232,13.413854 6.02753544,13.4068261 L6.036,13.38 L6.10003607,13.1317391 C5.63086528,12.9095217 4.52585556,12.4824348 2.83334067,12.4204783 Z M19.9168243,2.5 C20.605997,2.5 21.1668353,3.05595652 21.1668353,3.73913043 L21.1668353,9.52173913 C21.1668353,10.204913 20.605997,10.7608696 19.9168243,10.7608696 L9.91673632,10.7608696 C9.22756359,10.7608696 8.66672532,10.204913 8.66672532,9.52173913 L8.66672532,3.73913043 C8.66672532,3.05595652 9.22756359,2.5 9.91673632,2.5 L19.9168243,2.5 Z M19.9168243,3.32608696 L9.91673632,3.32608696 C9.6867343,3.32608696 9.50006599,3.51195652 9.50006599,3.73913043 L9.50006599,9.52173913 C9.50006599,9.74891304 9.6867343,9.93478261 9.91673632,9.93478261 L19.9168243,9.93478261 C20.1468263,9.93478261 20.3334946,9.74891304 20.3334946,9.52173913 L20.3334946,3.73913043 C20.3334946,3.51195652 20.1468263,3.32608696 19.9168243,3.32608696 Z M14.9167803,4.97826087 C15.8359551,4.97826087 16.5834616,5.71926087 16.5834616,6.63043478 C16.5834616,7.5416087 15.8359551,8.2826087 14.9167803,8.2826087 C13.9976056,8.2826087 13.250099,7.5416087 13.250099,6.63043478 C13.250099,5.71926087 13.9976056,4.97826087 14.9167803,4.97826087 Z M14.9167803,5.80434783 C14.4576096,5.80434783 14.0834396,6.17443478 14.0834396,6.63043478 C14.0834396,7.08643478 14.4576096,7.45652174 14.9167803,7.45652174 C15.375951,7.45652174 15.750121,7.08643478 15.750121,6.63043478 C15.750121,6.17443478 15.375951,5.80434783 14.9167803,5.80434783 Z M11.5834177,6.2173913 C11.8134197,6.2173913 12.000088,6.40243478 12.000088,6.63043478 C12.000088,6.85843478 11.8134197,7.04347826 11.5834177,7.04347826 L10.750077,7.04347826 C10.520075,7.04347826 10.3334067,6.85843478 10.3334067,6.63043478 C10.3334067,6.40243478 10.520075,6.2173913 10.750077,6.2173913 L11.5834177,6.2173913 Z M19.0834836,6.2173913 C19.3134857,6.2173913 19.500154,6.40243478 19.500154,6.63043478 C19.500154,6.85843478 19.3134857,7.04347826 19.0834836,7.04347826 L18.250143,7.04347826 C18.020141,7.04347826 17.8334726,6.85843478 17.8334726,6.63043478 C17.8334726,6.40243478 18.020141,6.2173913 18.250143,6.2173913 L19.0834836,6.2173913 Z" id="path-1"></path>
    </defs>
    <g id="icon/fund" stroke="none" stroke-width="1" fill="none" fill-rule="evenodd">
        <mask id="mask-2" fill="white">
            <use xlink:href="#path-1"></use>
        </mask>
        <use id="Combined-Shape" fill="#000000" fill-rule="nonzero" xlink:href="#path-1"></use>
    </g>
</svg>