<svg xmlns="http://www.w3.org/2000/svg" xmlns:xlink="http://www.w3.org/1999/xlink" viewBox="0 0 24 24">
  <defs>
    <path d="M11.889 22.993c-.133-.025-10.042-5.048-10.172-5.157a.766.766 0 01-.16-.212c-.057-.12-.057-.15-.057-1.55v-1.43l.065-.127a.563.563 0 01.301-.297c.095-.043.215-.049.958-.057l.847-.01V5.46l-.86-.008c-.83-.008-.869-.01-.977-.068a.69.69 0 01-.307-.362c-.038-.136-.035-3.506.003-3.607a.64.64 0 01.304-.348L1.972 1h20.061l.144.076a.517.517 0 01.228.21l.081.13.009 1.756c.008 1.987.016 1.9-.201 2.093a.554.554 0 01-.258.136c-.079.02-.467.03-.92.03h-.787v8.724l.863.008c.828.008.866.011.972.068a.714.714 0 01.3.326c.028.071.036.384.036 1.536v1.45l-.079.138a.66.66 0 01-.152.185c-.067.046-7.691 3.917-9.3 4.725-.763.38-.901.432-1.08.402zm9.115-6.066v-1.266H3.1v1.266l8.9 4.481 9.004-4.48zM8.6 9.808v-4.35h-3v8.7h3v-4.35zm4.9 0v-4.35h-3v8.7h3v-4.35zm5 .002V5.46h-3v8.7h3V9.81zm2.452-6.58v-.82H3.048v1.64h17.904v-.82z" id="a"/>
  </defs>
  <g fill="none" fill-rule="evenodd">
    <mask id="b" fill="#fff">
      <use xlink:href="#a"/>
    </mask>
    <use fill="#000" fill-rule="nonzero" transform="matrix(1 0 0 -1 0 24)" xlink:href="#a"/>
  </g>
</svg>
