<svg xmlns="http://www.w3.org/2000/svg" xmlns:xlink="http://www.w3.org/1999/xlink" viewBox="0 0 24 24">
  <defs>
    <path d="M12 17a1 1 0 0 1 1 1v4a1 1 0 0 1-2 0v-4a1 1 0 0 1 1-1Zm3.533-1.467a1 1 0 0 1 1.414 0l2.83 2.83a1 1 0 0 1-1.414 1.414l-2.83-2.83a1 1 0 0 1 0-1.414Zm-8.48 0a1 1 0 1 1 1.414 1.414l-2.83 2.83a1 1 0 1 1-1.414-1.414ZM6 11a1 1 0 0 1 0 2H2a1 1 0 0 1 0-2Zm16 0a1 1 0 0 1 0 2h-4a1 1 0 0 1 0-2ZM4.223 4.223a1 1 0 0 1 1.414 0l2.83 2.83a1 1 0 0 1-1.414 1.414l-2.83-2.83a1 1 0 0 1 0-1.414Zm14.14 0a1 1 0 0 1 1.414 1.414l-2.83 2.83a1 1 0 0 1-1.414-1.414ZM12 1a1 1 0 0 1 1 1v4a1 1 0 0 1-2 0V2a1 1 0 0 1 1-1Z" id="a"/>
  </defs>
  <use fill="#000" fill-rule="nonzero" xlink:href="#a"/>
</svg>
