<svg xmlns="http://www.w3.org/2000/svg" xmlns:xlink="http://www.w3.org/1999/xlink" viewBox="0 0 24 24"><defs><path d="M20.74 15.513a2.928 2.928 0 00-1.6-3.385l-2.126-.991a1.758 1.758 0 00-.376-.126c.39-.322.639-.81.639-1.354V7.313a2.935 2.935 0 00-2.394-2.88C14.635 3.073 13.447 2 12 2c-1.446 0-2.635 1.071-2.883 2.433a2.935 2.935 0 00-2.394 2.88v2.344c0 .544.25 1.032.64 1.354a1.758 1.758 0 00-.377.126l-2.126.99a2.928 2.928 0 00-1.6 3.386c-1.146.809-1.595 2.33-.991 3.623.603 1.294 2.068 1.98 3.426 1.636a2.938 2.938 0 003.625.954l2.126-.99c.216-.102.402-.244.554-.415.152.171.338.313.554.414l2.126.99c1.3.606 2.821.174 3.625-.953a3.002 3.002 0 003.426-1.636c.604-1.293.155-2.814-.99-3.623zM16.52 12.2l2.125.99a1.76 1.76 0 01.998 1.842 2.93 2.93 0 00-3.262 1.626l.99-2.122a.586.586 0 00-.284-.778l-1.063-.496a.586.586 0 01.496-1.062zM7.896 7.313c0-.792.527-1.464 1.249-1.683A2.936 2.936 0 0012 7.9c1.389 0 2.554-.97 2.855-2.269.722.22 1.25.89 1.25 1.683v2.344a.587.587 0 01-1.173 0V8.485a.586.586 0 00-.587-.586h-4.69a.586.586 0 00-.587.586v1.172a.587.587 0 01-1.172 0V7.313zm-2.54 5.877l2.125-.99a.586.586 0 11.496 1.061l-1.063.496a.586.586 0 00-.284.778l.99 2.123a2.93 2.93 0 00-3.262-1.627 1.76 1.76 0 01.998-1.841zm5.594 6.483l-2.125.99c-.719.335-1.55.141-2.054-.42.43-.338.758-.793.95-1.327a2.951 2.951 0 00-.099-2.255l.99 2.123c.138.293.486.42.78.283l1.063-.495a.586.586 0 01.779.283c.14.3.007.682-.284.818zM12 17.915a1.76 1.76 0 00-2.04-.405l-.532.247-1.487-3.186.531-.248a1.76 1.76 0 00.378-2.947 1.761 1.761 0 001.391-1.72v-.585h3.518v.586c0 .843.597 1.55 1.391 1.719a1.76 1.76 0 00.377 2.948l.532.247-1.487 3.186-.531-.247a1.76 1.76 0 00-2.041.405zm3.175 2.749l-2.125-.991c-.291-.136-.424-.518-.284-.818a.587.587 0 01.78-.283l1.062.495c.293.137.643.01.78-.283l.99-2.122a2.952 2.952 0 00-.099 2.254c.192.534.52.99.95 1.327a1.763 1.763 0 01-2.054.42z" id="a"/></defs><use fill="#000" fill-rule="nonzero" xlink:href="#a"/></svg>
