<svg xmlns="http://www.w3.org/2000/svg" xmlns:xlink="http://www.w3.org/1999/xlink" viewBox="0 0 24 24">
  <defs>
    <path d="M22.002 11.499a9.376 9.376 0 0 1-1.006 4.248A9.5 9.5 0 0 1 12.504 21a9.38 9.38 0 0 1-3.868-.824L3.318 21.95a1 1 0 0 1-1.265-1.265l1.773-5.318A9.498 9.498 0 0 1 8.25 3.007 9.378 9.378 0 0 1 12.5 2l.556.002c4.825.266 8.677 4.118 8.945 8.998v.499Z" id="path-1"/>
  </defs>
  <g id="icon/message-circle-fill" stroke="none" stroke-width="1" fill="none" fill-rule="evenodd">
    <mask id="mask-2" fill="#fff">
      <use xlink:href="#path-1"/>
    </mask>
    <use id="Shape" fill="#000" fill-rule="nonzero" xlink:href="#path-1"/>
    <g id="Group" mask="url(#mask-2)" fill="#000">
      <g id="COLOR/-black">
        <path id="Color/Black" d="M0 0h24v24H0z"/>
      </g>
    </g>
  </g>
</svg>
