<svg xmlns="http://www.w3.org/2000/svg" xmlns:xlink="http://www.w3.org/1999/xlink" width="24" height="24" viewBox="0 0 24 24">
    <defs>
        <path id="155v5dfwba" d="M12 9c1.657 0 3 1.343 3 3s-1.343 3-3 3-3-1.343-3-3 1.343-3 3-3zm8 0c1.657 0 3 1.343 3 3s-1.343 3-3 3-3-1.343-3-3 1.343-3 3-3zM4 9c1.657 0 3 1.343 3 3s-1.343 3-3 3-3-1.343-3-3 1.343-3 3-3zm0 2c-.552 0-1 .448-1 1s.448 1 1 1 1-.448 1-1-.448-1-1-1zm16 0c-.552 0-1 .448-1 1s.448 1 1 1 1-.448 1-1-.448-1-1-1zm-8 0c-.552 0-1 .448-1 1s.448 1 1 1 1-.448 1-1-.448-1-1-1z"/>
    </defs>
    <g fill="none" fill-rule="evenodd">
        <g>
            <g>
                <g>
                    <g transform="translate(-1698.000000, -144.000000) translate(186.000000, 132.000000) translate(1500.000000, 0.000000) translate(12.000000, 12.000000)">
                        <mask id="l6v5u2il7b" fill="#fff">
                            <use xlink:href="#155v5dfwba"/>
                        </mask>
                        <use fill="#000" fill-rule="nonzero" xlink:href="#155v5dfwba"/>
                        <g fill="none" mask="url(#l6v5u2il7b)">
                            <path d="M0 0H24V24H0z"/>
                        </g>
                    </g>
                </g>
            </g>
        </g>
    </g>
</svg>
