<svg xmlns="http://www.w3.org/2000/svg" xmlns:xlink="http://www.w3.org/1999/xlink" viewBox="0 0 24 24">
  <defs>
    <path d="M15.411 1L21 6.542v14.116A2.35 2.35 0 0118.648 23H6.53a2.35 2.35 0 01-2.353-2.342V19.61h-.23A.946.946 0 013 18.666v-5.722c0-.522.425-.944.948-.944h.23V3.342A2.35 2.35 0 016.531 1h8.88zm-.539 1.427l-8.34.008a.91.91 0 00-.912.907V12h11.295c.523 0 .948.422.948.944v5.722a.946.946 0 01-.948.943H5.62v1.05c0 .5.409.907.911.907h12.117a.91.91 0 00.91-.908L19.524 7.11l-3.02.008a1.628 1.628 0 01-1.632-1.623V2.427zm-4.726 11.467c-.455 0-.887.03-1.219.082v3.898c.225.03.556.059 1.024.059.781 0 1.42-.165 1.84-.512.385-.324.663-.848.663-1.607 0-.702-.26-1.19-.674-1.496-.385-.289-.876-.424-1.634-.424zm-3.44 0c-.55 0-.94.035-1.218.082v3.916h.893v-1.419c.083.012.19.017.308.017.532 0 .988-.13 1.296-.417.236-.224.366-.554.366-.943 0-.388-.171-.718-.426-.918-.266-.212-.662-.318-1.219-.318zm8.78.03h-2.438v3.968h.905v-1.596h1.432v-.73h-1.432v-.907h1.533v-.735zm-5.245.66c.775 0 1.26.435 1.255 1.26 0 .947-.533 1.394-1.35 1.389-.112 0-.236 0-.313-.018v-2.597c.076-.018.207-.035.408-.035zm-3.487-.013c.45 0 .704.218.704.583 0 .407-.296.647-.775.647a1.42 1.42 0 01-.302-.023v-1.172c.065-.017.19-.035.373-.035z" id="a"/>
  </defs>
  <g fill="none" fill-rule="evenodd">
    <mask id="b" fill="#fff">
      <use xlink:href="#a"/>
    </mask>
    <use fill="#2E384D" fill-rule="nonzero" xlink:href="#a"/>
    <g mask="url(#b)" fill="#21242A">
      <path d="M0 0h24v24H0z"/>
    </g>
  </g>
</svg>
