<svg xmlns="http://www.w3.org/2000/svg" xmlns:xlink="http://www.w3.org/1999/xlink" viewBox="0 0 24 24">
  <defs>
    <path d="M12 4a1 1 0 0 1 1 1v6h6a1 1 0 0 1 .993.883L20 12a1 1 0 0 1-1 1h-6v6a1 1 0 0 1-.883.993L12 20a1 1 0 0 1-1-1v-6H5a1 1 0 0 1-.993-.883L4 12a1 1 0 0 1 1-1h6V5a1 1 0 0 1 .883-.993z" id="path-1"/>
  </defs>
  <g id="icon/plus" stroke="none" stroke-width="1" fill="none" fill-rule="evenodd">
    <mask id="mask-2" fill="#fff">
      <use xlink:href="#path-1"/>
    </mask>
    <use id="Combined-Shape" fill="#000" fill-rule="nonzero" xlink:href="#path-1"/>
    <g id="Group" mask="url(#mask-2)" fill="#21242A">
      <g id="COLOR/-black">
        <path id="Color/Black" d="M0 0h24v24H0z"/>
      </g>
    </g>
  </g>
</svg>
