<svg xmlns="http://www.w3.org/2000/svg" xmlns:xlink="http://www.w3.org/1999/xlink" viewBox="0 0 24 24"><defs><path d="M14 3.414l-10 10V16h2.586l10-10L14 3.414zM21 21a1 1 0 010 2H3a1 1 0 010-2zM14.707 1.293l4 4a1 1 0 010 1.414l-11 11A1 1 0 017 18H3a1 1 0 01-1-1v-4a1 1 0 01.293-.707l11-11a1 1 0 011.414 0z" id="a"/></defs><g fill="none" fill-rule="evenodd"><mask id="b" fill="#fff"><use xlink:href="#a"/></mask><use fill="#000" fill-rule="nonzero" xlink:href="#a"/><g mask="url(#b)" fill="#21242A"><path d="M0 0h24v24H0z"/></g></g></svg>