<?xml version="1.0" encoding="UTF-8"?>
<svg xmlns="http://www.w3.org/2000/svg" xmlns:xlink="http://www.w3.org/1999/xlink" viewBox="0 0 24 24">
    <title>Report Filled</title>
<defs>
    <path d="M14 1a1 1 0 01.707.293l6 6A1 1 0 0121 8v12a3 3 0 01-3 3H6a3 3 0 01-3-3V4a3 3 0 013-3h8zm2 15H8a1 1 0 000 2h8a1 1 0 000-2zm0-4H8a1 1 0 000 2h8a1 1 0 000-2zm-6-4H8a1 1 0 100 2h2a1 1 0 000-2zm3.258-5.002c.11 2.48.167 3.719.167 3.719 0 .87.87 1.722 1.832 1.722h3.47z" id="path-1"/>
  </defs>
  <g id="icon/file-tex-fill" stroke="none" stroke-width="1" fill="none" fill-rule="evenodd">
    <mask id="mask-2" fill="#fff">
      <use xlink:href="#path-1"/>
    </mask>
    <use id="Combined-Shape" fill="#000" fill-rule="nonzero" xlink:href="#path-1"/>
    <g id="Group" mask="url(#mask-2)" fill="#21242A">
      <g id="COLOR/-black">
        <path id="Color/Black" d="M0 0h24v24H0z"/>
      </g>
    </g>
  </g>
</svg>
