<?xml version="1.0" encoding="UTF-8"?>
<svg width="24px" height="24px" viewBox="0 0 24 24" version="1.1" xmlns="http://www.w3.org/2000/svg" xmlns:xlink="http://www.w3.org/1999/xlink">
    <title>Collapse sidebar</title>
    <defs>
        <path d="M21.3333333,4 C21.7015232,4 22,4.39796911 22,4.88888889 L22,19.1111111 C22,19.6020309 21.7015232,20 21.3333333,20 L18.6666667,20 C18.2984768,20 18,19.6020309 18,19.1111111 L18,4.88888889 C18,4.39796911 18.2984768,4 18.6666667,4 L21.3333333,4 Z M2.0110178,11.8515331 C2.01362808,11.834051 2.01670217,11.8166247 2.02016515,11.7992059 C2.0246398,11.7772539 2.02983363,11.7555635 2.03584514,11.734007 C2.04009773,11.7185367 2.04472872,11.7031487 2.04954668,11.6882636 C2.05612249,11.6682023 2.06331574,11.6484208 2.07122549,11.628664 L2.07122549,11.628664 L2.09365378,11.5769009 C2.10337664,11.5561086 2.11379392,11.5357061 2.12467117,11.5159379 L2.12467117,11.5159379 L2.14606743,11.4793398 C2.1617187,11.453725 2.17849009,11.4288693 2.19633458,11.4046934 C2.20175344,11.397397 2.20728448,11.3901576 2.21278596,11.3832499 C2.23766884,11.3515341 2.26442691,11.3213595 2.29289322,11.2928932 L2.29289322,11.2928932 L6.29289322,7.29289322 L6.38710056,7.20970461 C6.77939176,6.90467972 7.34662282,6.93240926 7.70710678,7.29289322 L7.70710678,7.29289322 L7.79029539,7.38710056 C8.09532028,7.77939176 8.06759074,8.34662282 7.70710678,8.70710678 L7.70710678,8.70710678 L5.415,11 L15,11 L15.1166211,11.0067277 C15.6139598,11.0644928 16,11.4871642 16,12 L16,12 L15.9932723,12.1166211 C15.9355072,12.6139598 15.5128358,13 15,13 L15,13 L5.415,13 L7.70710678,15.2928932 L7.79029539,15.3871006 C8.09532028,15.7793918 8.06759074,16.3466228 7.70710678,16.7071068 C7.31658249,17.0976311 6.68341751,17.0976311 6.29289322,16.7071068 L6.29289322,16.7071068 L2.29289322,12.7071068 L2.22,12.625 L2.19631351,12.5951593 C2.1874018,12.583145 2.1787531,12.5709239 2.17036692,12.5585106 L2.14599545,12.5207088 C2.13860692,12.5086131 2.13149883,12.4963944 2.12487577,12.484277 C2.11379392,12.4642939 2.10337664,12.4438914 2.09367336,12.4232215 L2.09367336,12.4232215 L2.07110396,12.3710585 C2.06331574,12.3515792 2.05612249,12.3317977 2.04973809,12.3121425 C2.04472872,12.2968513 2.04009773,12.2814633 2.03572097,12.2658396 C2.02983363,12.2444365 2.0246398,12.2227461 2.02024007,12.2007258 C2.01670217,12.1833753 2.01362808,12.165949 2.01101934,12.1489612 C2.00790593,12.1281144 2.00543596,12.1070574 2.00361597,12.0852242 C2.00214496,12.0679231 2.00112277,12.050591 2.00055172,12.0335352 L2.00055172,12.0335352 L2.00051708,11.9677454 C2.00109474,11.9497336 2.0021564,11.9317345 2.00370206,11.9137692 L2.00278767,11.9248232 L2.00278767,11.9248232 L2.002,11.94 L2.00370206,11.9137692 Z" id="path-1"></path>
    </defs>
    <g id="icon/side-colaps" stroke="none" stroke-width="1" fill="none" fill-rule="evenodd">
        <mask id="mask-2" fill="white">
            <use xlink:href="#path-1"></use>
        </mask>
        <use id="Combined-Shape" fill="#000000" fill-rule="nonzero" xlink:href="#path-1"></use>
        <g id="Group" mask="url(#mask-2)" fill="#21242A">
            <g id="COLOR/-black">
                <rect id="Color/Black" x="0" y="0" width="24" height="24"></rect>
            </g>
        </g>
    </g>
</svg>
