<?xml version="1.0" encoding="UTF-8"?>
<svg xmlns="http://www.w3.org/2000/svg" xmlns:xlink="http://www.w3.org/1999/xlink" viewBox="0 0 24 24">
  <title>Sidebar</title>
  <defs>
    <path d="M5 22a3 3 0 01-3-3V5a3 3 0 013-3h14a3 3 0 013 3v14a3 3 0 01-3 3H5zM8 4H5a1 1 0 00-1 1v14a1 1 0 001 1h3V4zm11 0h-9v16h9a1 1 0 001-1V5a1 1 0 00-1-1z" id="path-1"/>
  </defs>
  <g id="icon/sidebar" stroke="none" stroke-width="1" fill="none" fill-rule="evenodd">
    <mask id="mask-2" fill="#fff">
      <use xlink:href="#path-1"/>
    </mask>
    <use id="Combined-Shape" fill="#000" xlink:href="#path-1"/>
    <g id="Group" mask="url(#mask-2)" fill="#21242A">
      <g id="COLOR/-black">
        <path id="Color/Black" d="M0 0h24v24H0z"/>
      </g>
    </g>
  </g>
</svg>
