<?xml version="1.0" encoding="UTF-8"?>
<svg xmlns="http://www.w3.org/2000/svg" xmlns:xlink="http://www.w3.org/1999/xlink" viewBox="0 0 24 24">
  <title>Sidebar Open</title>
  <defs>
    <path d="M5.333 4c.369 0 .667.398.667.889V19.11c0 .491-.298.889-.667.889H2.667C2.298 20 2 19.602 2 19.111V4.89C2 4.398 2.298 4 2.667 4h2.666zM22 11.967L22 12l-.002-.06.001.027L22 12a1.018 1.018 0 01-.071.371l-.023.052a1.018 1.018 0 01-.102.172l-.025.03c.004-.002.002-.001.001 0l-.013.015-.01.013-.05.054-4 4a1 1 0 01-1.497-1.32l.083-.094L18.585 13H9a1 1 0 01-.993-.883L8 12a1 1 0 01.883-.993L9 11h9.585l-2.292-2.293a1 1 0 01-.083-1.32l.083-.094a1 1 0 011.32-.083l.094.083 4 4a1.006 1.006 0 01.147.186l.021.037c.011.02.022.04.031.06l.023.053a.988.988 0 01.06.223l.008.073.001.015.001.027z" id="path-1"/>
  </defs>
  <g id="icon/side-open" stroke="none" stroke-width="1" fill="none" fill-rule="evenodd">
    <mask id="mask-2" fill="#fff">
      <use xlink:href="#path-1"/>
    </mask>
    <use id="Combined-Shape" fill="#000" fill-rule="nonzero" xlink:href="#path-1"/>
    <g id="Group" mask="url(#mask-2)" fill="#21242A">
      <g id="COLOR/-black">
        <path id="Color/Black" d="M0 0h24v24H0z"/>
      </g>
    </g>
  </g>
</svg>
