<svg xmlns="http://www.w3.org/2000/svg" xmlns:xlink="http://www.w3.org/1999/xlink" viewBox="0 0 20 20">
  <defs>
    <path id="a" d="M10 1.667A8.333 8.333 0 0 1 18.333 10 8.333 8.333 0 0 1 10 18.333 8.333 8.333 0 0 1 1.667 10 8.333 8.333 0 0 1 10 1.667zM3.182 10a6.817 6.817 0 0 0 11.074 5.328L4.673 5.743A6.794 6.794 0 0 0 3.182 10zM10 3.182a6.79 6.79 0 0 0-4.256 1.491l9.583 9.583A6.817 6.817 0 0 0 10 3.182z"/>
  </defs>
  <g fill="none" fill-rule="evenodd">
    <mask id="b" fill="#fff">
      <use xlink:href="#a"/>
    </mask>
    <use fill="#000" fill-rule="nonzero" xlink:href="#a"/>
    <g fill="#A1B1C7" mask="url(#b)">
      <path d="M0 0h20v20H0z"/>
    </g>
  </g>
</svg>
