<svg xmlns="http://www.w3.org/2000/svg" xmlns:xlink="http://www.w3.org/1999/xlink" viewBox="0 0 24 24">
  <defs>
    <path d="M19.649 8a3 3 0 0 1 3 3.452l-1.38 8.998A2.997 2.997 0 0 1 18.28 23H7a1 1 0 0 1-1-1V11a1 1 0 0 1 .086-.406l4-9A1 1 0 0 1 11 1a4 4 0 0 1 4 4v3h4.649ZM4.429 23H2.714C1.768 23 1 21.657 1 20v-7c0-1.657.768-3 1.714-3H4.43c.315 0 .571.448.571 1v11c0 .552-.256 1-.571 1Z" id="path-1"/>
  </defs>
  <g id="icon/thumbs-up-fill" stroke="none" stroke-width="1" fill="none" fill-rule="evenodd">
    <mask id="mask-2" fill="#fff">
      <use xlink:href="#path-1"/>
    </mask>
    <use id="Shape" fill="#000" fill-rule="nonzero" xlink:href="#path-1"/>
    <g id="Group" mask="url(#mask-2)" fill="#21242A">
      <g id="COLOR/-black">
        <path id="Color/Black" d="M0 0h24v24H0z"/>
      </g>
    </g>
  </g>
</svg>
