<svg xmlns="http://www.w3.org/2000/svg" xmlns:xlink="http://www.w3.org/1999/xlink" viewBox="0 0 24 24">
  <defs>
    <path d="M9 16H4.351a3 3 0 0 1-3-3.452l1.38-8.998A2.997 2.997 0 0 1 5.72 1H17a1 1 0 0 1 1 1v11a1 1 0 0 1-.086.406l-4 9A1 1 0 0 1 13 23a4 4 0 0 1-4-4v-3ZM19.571 1h1.516c.96-.03 1.78 1.202 1.908 2.866L23 4v7l-.005.134c-.129 1.664-.949 2.896-1.898 2.866h-1.526c-.315 0-.571-.448-.571-1V2c0-.552.256-1 .571-1Z" id="path-1"/>
  </defs>
  <g id="icon/thumbs-down-fill" stroke="none" stroke-width="1" fill="none" fill-rule="evenodd">
    <mask id="mask-2" fill="#fff">
      <use xlink:href="#path-1"/>
    </mask>
    <use id="Shape" fill="#000" fill-rule="nonzero" xlink:href="#path-1"/>
    <g id="Group" mask="url(#mask-2)" fill="#21242A">
      <g id="COLOR/-black">
        <path id="Color/Black" d="M0 0h24v24H0z"/>
      </g>
    </g>
  </g>
</svg>
