<svg xmlns="http://www.w3.org/2000/svg" xmlns:xlink="http://www.w3.org/1999/xlink" viewBox="0 0 24 24">
  <defs>
    <path d="M19.649 8a3 3 0 0 1 3 3.452l-1.38 8.998A2.997 2.997 0 0 1 18.28 23H7a1 1 0 0 1-1-1V11a1 1 0 0 1 .086-.406l4-9A1 1 0 0 1 11 1a4 4 0 0 1 4 4v3h4.649ZM8 21h10.291a1 1 0 0 0 1-.852l1.38-8.998A1 1 0 0 0 19.66 10H14a1 1 0 0 1-1-1V5a2 2 0 0 0-1.392-1.906L8 11.212V21Zm-2-9H4a1 1 0 0 0-1 1v7a1 1 0 0 0 1 1h2v-9Zm1 11H4a3 3 0 0 1-3-3v-7a3 3 0 0 1 3-3h3a1 1 0 0 1 1 1v11a1 1 0 0 1-1 1Z" id="path-1"/>
  </defs>
  <g id="icon/thumbs-up" stroke="none" stroke-width="1" fill="none" fill-rule="evenodd">
    <mask id="mask-2" fill="#fff">
      <use xlink:href="#path-1"/>
    </mask>
    <use id="Shape" fill="#000" fill-rule="nonzero" xlink:href="#path-1"/>
    <g id="Group" mask="url(#mask-2)" fill="#21242A">
      <g id="COLOR/-black">
        <path id="Color/Black" d="M0 0h24v24H0z"/>
      </g>
    </g>
  </g>
</svg>
