<?xml version="1.0" encoding="UTF-8"?>
<svg xmlns="http://www.w3.org/2000/svg" xmlns:xlink="http://www.w3.org/1999/xlink" viewBox="0 0 24 24">
  <title>Transaction</title>
  <defs>
    <path d="M5.933 4.923a10 10 0 11-2.366 10.4 1 1 0 111.886-.664 8 8 0 1011.416-9.66 8.01 8.01 0 00-9.544 1.36L4.524 8.99H8a1 1 0 01.993.884L9 9.991a1 1 0 01-1 1H2a1.016 1.016 0 01-.333-.057.996.996 0 01-.396-.258l.079.075A1.006 1.006 0 011 9.99l.002.07a1.006 1.006 0 01-.002-.06v-6.01a1 1 0 112 0v3.688zM13.647 6.5v1.513c.428.058.809.158 1.143.302.334.143.62.301.861.474v1.18a5.313 5.313 0 00-.974-.608 3.769 3.769 0 00-1.086-.326v2.387c.315.074.617.164.906.27.29.107.546.249.771.425.225.176.404.392.535.646s.197.566.197.935c0 .664-.206 1.198-.62 1.6-.412.401-.99.635-1.733.7V17.5h-.968v-1.526a5.067 5.067 0 01-1.548-.449c-.469-.225-.846-.478-1.131-.757l.462-.836a4.5 4.5 0 002.273 1.021v-2.46a7.892 7.892 0 01-.956-.272 2.873 2.873 0 01-.783-.412 1.887 1.887 0 01-.529-.621c-.131-.246-.197-.546-.197-.898 0-.648.207-1.18.62-1.594.412-.414 1.009-.65 1.79-.707V6.5h.967zm-.056 6.177v2.3c.435-.032.777-.145 1.024-.338.248-.193.372-.47.372-.83a.952.952 0 00-.096-.443.834.834 0 00-.276-.308 1.92 1.92 0 00-.439-.215 5.107 5.107 0 00-.585-.166zm-.856-3.667c-.45.033-.804.142-1.063.326-.26.185-.389.45-.389.794 0 .172.036.32.107.443a.884.884 0 00.304.307c.132.082.285.15.462.203.176.054.37.105.58.154V9.01z" id="path-1"/>
  </defs>
  <g id="icon/transaction" stroke="none" stroke-width="1" fill="none" fill-rule="evenodd">
    <mask id="mask-2" fill="#fff">
      <use xlink:href="#path-1"/>
    </mask>
    <use id="Combined-Shape" fill="#000" fill-rule="nonzero" xlink:href="#path-1"/>
    <g id="Group" mask="url(#mask-2)" fill="#21242A">
      <g id="COLOR/-black">
        <path id="Color/Black" d="M0 0h24v24H0z"/>
      </g>
    </g>
  </g>
</svg>
