<svg xmlns="http://www.w3.org/2000/svg" xmlns:xlink="http://www.w3.org/1999/xlink" viewBox="0 0 24 24">
  <defs>
    <path d="M13.8 2c1.491 0 2.7 1.221 2.7 2.727v.909h3.6c.459 0 .837.347.893.795l.007.114c0 .503-.403.91-.9.91l-.9-.001v11.819c0 1.45-1.12 2.636-2.536 2.722L16.5 22h-9c-1.491 0-2.7-1.221-2.7-2.727L4.799 7.454H3.9a.903.903 0 0 1-.893-.795L3 6.545c0-.502.403-.909.9-.909h3.599l.001-.909c0-1.45 1.12-2.636 2.536-2.722L10.2 2Zm3.599 5.454h-10.8L6.6 19.273c0 .463.343.846.787.902l.113.007h9c.497 0 .9-.407.9-.91l-.001-11.818ZM10.2 10.182c.497 0 .9.407.9.909v5.454c0 .503-.403.91-.9.91a.905.905 0 0 1-.9-.91v-5.454c0-.502.403-.91.9-.91Zm3.6 0c.497 0 .9.407.9.909v5.454c0 .503-.403.91-.9.91a.905.905 0 0 1-.9-.91v-5.454c0-.502.403-.91.9-.91Zm0-6.364h-3.6c-.497 0-.9.407-.9.91v.908h5.4v-.909a.906.906 0 0 0-.787-.902l-.113-.007Z" id="a"/>
  </defs>
  <use fill="#000" fill-rule="nonzero" xlink:href="#a"/>
</svg>
