<svg xmlns="http://www.w3.org/2000/svg" xmlns:xlink="http://www.w3.org/1999/xlink" viewBox="0 0 24 24">
  <defs>
    <path d="M14 1a3 3 0 0 1 3 3v1h4a1 1 0 0 1 .993.883L22 6a1 1 0 0 1-1 1h-1v13a3 3 0 0 1-2.824 2.995L17 23H7a3 3 0 0 1-3-3V7H3a1 1 0 0 1-.993-.883L2 6a1 1 0 0 1 1-1h4V4a3 3 0 0 1 2.824-2.995L10 1Zm4 6H6v13a1 1 0 0 0 .883.993L7 21h10a1 1 0 0 0 1-1V7Zm-4-4h-4a1 1 0 0 0-1 1v1h6V4a1 1 0 0 0-.883-.993L14 3Z" id="a"/>
  </defs>
  <use fill="#000" fill-rule="nonzero" xlink:href="#a"/>
</svg>
