<svg xmlns="http://www.w3.org/2000/svg" xmlns:xlink="http://www.w3.org/1999/xlink" viewBox="0 0 24 24">
  <defs>
    <path d="M19.2 8.363v10.91c0 1.45-1.12 2.636-2.536 2.722L16.5 22h-9c-1.436 0-2.61-1.132-2.695-2.561l-.005-.166V8.363h14.4Zm-9 2.728c-.497 0-.9.407-.9.909v5.455c0 .502.403.909.9.909s.9-.407.9-.91V12a.905.905 0 0 0-.9-.91Zm3.6 0c-.497 0-.9.407-.9.909v5.455c0 .502.403.909.9.909s.9-.407.9-.91V12a.905.905 0 0 0-.9-.91ZM13.8 2c1.436 0 2.61 1.132 2.695 2.561l.005.166v.909h3.6c.459 0 .837.347.893.795l.007.114a.906.906 0 0 1-.787.902l-.113.008H3.9a.905.905 0 0 1-.9-.91c0-.463.343-.845.787-.902l.113-.007h3.6v-.909c0-1.45 1.12-2.636 2.536-2.722L10.2 2h3.6Zm0 1.818h-3.6a.903.903 0 0 0-.893.795l-.007.114-.001.909H14.7v-.909a.906.906 0 0 0-.787-.902l-.113-.007Z" id="a"/>
  </defs>
  <use fill="#000" fill-rule="nonzero" xlink:href="#a"/>
</svg>
