<svg xmlns="http://www.w3.org/2000/svg" xmlns:xlink="http://www.w3.org/1999/xlink" viewBox="0 0 24 24">
  <defs>
    <path d="m12.09 11.001.032.004.032.004a1.003 1.003 0 0 1 .08.015l.03.008a.997.997 0 0 1 .23.093l.023.013a.994.994 0 0 1 .196.153l-.086-.077.004.003.082.074 4 4a1 1 0 0 1-.531 1.691l-.118.014h-.118a.996.996 0 0 1-.648-.291l-2.293-2.293v6.586a1 1 0 0 1-.883.993l-.117.007a1 1 0 0 1-1-1v-6.586l-2.292 2.293a.995.995 0 0 1-.531.277l-.118.014h-.118a1 1 0 0 1-.648-1.705l4-4 .082-.074a1.013 1.013 0 0 1 .09-.064l.012-.007a.994.994 0 0 1 .012-.008l.024-.013a.997.997 0 0 1 .15-.069l.018-.006a.998.998 0 0 1 .09-.026l.026-.005a1.003 1.003 0 0 1 .203-.021L11.92 11l.052-.003h.067l.025.002ZM1.02 6.841a9 9 0 0 1 16.466 1.157h.521a6 6 0 0 1 2.868 11.268 1 1 0 0 1-.957-1.756 4 4 0 0 0-1.912-7.512h-1.26a1 1 0 0 1-.968-.75 7 7 0 1 0-12.022 6.388 1 1 0 0 1-1.499 1.324A9 9 0 0 1 1.02 6.841Z" id="a"/>
  </defs>
  <use fill="#000" fill-rule="nonzero" xlink:href="#a"/>
</svg>
