<?xml version="1.0" encoding="UTF-8"?>
<svg width="24px" height="24px" viewBox="0 0 24 24" version="1.1" xmlns="http://www.w3.org/2000/svg" xmlns:xlink="http://www.w3.org/1999/xlink">
    <title>icon/user-line</title>
    <defs>
        <path d="M12.0213331,16 C15.3839571,16 18.3768461,16.9699502 21,18.9098506 L19.8673874,21 C17.5914691,19.3333333 14.9690066,18.5 12,18.5 C9.03099341,18.5 6.41305705,19.3333333 4.14619091,21 L3,18.9098506 C5.65159804,16.9699502 8.65870906,16 12.0213331,16 Z M12,2 C14.7614237,2 17,4.6862915 17,8 C17,11.3137085 14.7614237,14 12,14 C9.23857625,14 7,11.3137085 7,8 C7,4.6862915 9.23857625,2 12,2 Z M12,4 C10.3431458,4 9,5.790861 9,8 C9,10.209139 10.3431458,12 12,12 C13.6568542,12 15,10.209139 15,8 C15,5.790861 13.6568542,4 12,4 Z" id="path-1"></path>
    </defs>
    <g id="icon/user-line" stroke="none" stroke-width="1" fill="none" fill-rule="evenodd">
        <mask id="mask-2" fill="white">
            <use xlink:href="#path-1"></use>
        </mask>
        <use id="user-line" fill="#000000" xlink:href="#path-1"></use>
        <g id="Group" mask="url(#mask-2)" fill="#21242A">
            <g id="COLOR/-black">
                <rect id="Color/Black" x="0" y="0" width="24" height="24"></rect>
            </g>
        </g>
    </g>
</svg>