<?xml version="1.0" encoding="UTF-8"?>
<svg xmlns="http://www.w3.org/2000/svg" xmlns:xlink="http://www.w3.org/1999/xlink" viewBox="0 0 24 24">
  <title>Users Filled</title>
  <defs>
    <path d="M13 14a5 5 0 015 5v2a1 1 0 01-1 1H1a1 1 0 01-1-1v-2a5 5 0 015-5zm6.032.88a1 1 0 011.218-.718A5 5 0 0124 19v2a1 1 0 01-2 0v-2a3 3 0 00-2.25-2.902 1 1 0 01-.718-1.218zM9 2a5 5 0 110 10A5 5 0 019 2zm6.031.882a1 1 0 011.217-.72 5 5 0 010 9.687 1 1 0 01-.496-1.938 3 3 0 000-5.812 1 1 0 01-.72-1.217zM9 4a3 3 0 100 6 3 3 0 000-6z" id="path-1"/>
  </defs>
  <g id="icon/users-fill" stroke="none" stroke-width="1" fill="none" fill-rule="evenodd">
    <mask id="mask-2" fill="#fff">
      <use xlink:href="#path-1"/>
    </mask>
    <use id="Combined-Shape" fill="#000" fill-rule="nonzero" xlink:href="#path-1"/>
    <g id="Group" mask="url(#mask-2)" fill="#21242A">
      <g id="COLOR/-black">
        <path id="Color/Black" d="M0 0h24v24H0z"/>
      </g>
    </g>
  </g>
</svg>
