<?xml version="1.0" encoding="UTF-8"?>
<svg xmlns="http://www.w3.org/2000/svg" xmlns:xlink="http://www.w3.org/1999/xlink" viewBox="0 0 24 24">
  <title>Voucher</title>
  <defs>
    <path d="M14.279 2c.423 0 .781.146 1.074.44l1.484 1.483a2.198 2.198 0 00-.665 1.614c0 .633.222 1.171.665 1.614.443.443.981.665 1.614.665.633 0 1.171-.222 1.614-.665l1.496 1.484c.293.293.439.65.439 1.074 0 .424-.146.782-.44 1.074L10.796 21.561A1.46 1.46 0 019.721 22c-.423 0-.781-.146-1.074-.44l-1.496-1.495c.444-.443.665-.98.665-1.614 0-.633-.222-1.171-.665-1.614a2.197 2.197 0 00-1.614-.665c-.633 0-1.17.222-1.614.665L2.439 15.34A1.461 1.461 0 012 14.267c0-.423.146-.781.44-1.074L13.204 2.439c.293-.293.65-.439 1.074-.439zm-.765 3.43a.725.725 0 00-.535.214l-7.335 7.335a.73.73 0 00-.225.535.73.73 0 00.225.534l4.297 4.296c.142.143.32.214.534.214a.723.723 0 00.534-.214l7.335-7.335a.73.73 0 00.226-.534.73.73 0 00-.226-.534l-4.296-4.297a.725.725 0 00-.534-.214zm0 1.294l3.75 3.751-6.789 6.79-3.75-3.751 6.789-6.79z" id="path-1"/>
  </defs>
  <g id="icon/ticket" stroke="none" stroke-width="1" fill="none" fill-rule="evenodd">
    <mask id="mask-2" fill="#fff">
      <use xlink:href="#path-1"/>
    </mask>
    <use id="Combined-Shape" fill="#000" fill-rule="nonzero" xlink:href="#path-1"/>
    <g id="Group" mask="url(#mask-2)" fill="#21242A">
      <g id="COLOR/-black">
        <path id="Color/Black" d="M0 0h24v24H0z"/>
      </g>
    </g>
  </g>
</svg>
