<svg xmlns="http://www.w3.org/2000/svg" xmlns:xlink="http://www.w3.org/1999/xlink" viewBox="0 0 24 24">
  <defs>
    <path id="a" d="M12 1c6.075 0 11 4.925 11 11s-4.925 11-11 11S1 18.075 1 12 5.925 1 12 1zM7.053 13.001H3.055a9.01 9.01 0 006.671 7.71 16.347 16.347 0 01-2.673-7.71zm13.892 0H16.95a16.313 16.313 0 01-2.675 7.709 9.008 9.008 0 006.67-7.71zm-6 0H9.058A14.292 14.292 0 0012 20.449 14.283 14.283 0 0014.945 13zm-5.22-9.71l-.036.008A9.008 9.008 0 003.055 11H7.05a16.317 16.317 0 012.675-7.71zM12 3.55A14.284 14.284 0 009.055 11h5.887A14.287 14.287 0 0012 3.55zm2.274-.261l.189.29a16.343 16.343 0 012.484 7.42h3.998a9.007 9.007 0 00-6.671-7.71z"/>
  </defs>
  <g fill="none" fill-rule="evenodd">
    <mask id="b" fill="#fff">
      <use xlink:href="#a"/>
    </mask>
    <use fill="#000" fill-rule="nonzero" xlink:href="#a"/>
    <g mask="url(#b)">
      <path d="M0 0h24v24H0z"/>
    </g>
  </g>
</svg>
