<?xml version="1.0" encoding="UTF-8"?>
<svg width="36px" height="36px" viewBox="0 0 36 36" version="1.1" xmlns="http://www.w3.org/2000/svg" xmlns:xlink="http://www.w3.org/1999/xlink">
    <title>Fund Manager</title>
    <defs>
        <path d="M16.5,14.4697987 C16.5,15.4362464 16.1904346,16.2117793 15.5712946,16.7964206 C14.9521545,17.3810618 14.0853714,17.7211032 12.9709193,17.8165548 L12.9709193,20 L11.5187617,20 L11.5187617,17.7807606 C10.6744798,17.6733775 9.90056637,17.4556318 9.19699812,17.1275168 C8.49342988,16.7994018 7.92776949,16.4325151 7.5,16.0268456 L8.19230769,14.8098434 C8.62007719,15.167787 9.12382449,15.480983 9.70356473,15.7494407 C10.283305,16.0178984 10.9165069,16.1998504 11.6031895,16.295302 L11.6031895,12.7158837 C11.0966204,12.6085006 10.6182011,12.4772566 10.1679174,12.3221477 C9.71763377,12.1670387 9.32645569,11.9671899 8.99437148,11.7225951 C8.66228727,11.4780003 8.39774958,11.1767356 8.20075047,10.8187919 C8.00375136,10.4608483 7.90525328,10.0253568 7.90525328,9.51230425 C7.90525328,8.56971937 8.21481867,7.79716931 8.83395872,7.19463087 C9.45309878,6.59209244 10.3480242,6.24906828 11.5187617,6.1655481 L11.5187617,4 L12.9709193,4 L12.9709193,6.20134228 C13.6125736,6.28486246 14.1838624,6.43102058 14.684803,6.63982103 C15.1857436,6.84862148 15.6163209,7.07829852 15.9765478,7.32885906 L15.9765478,9.04697987 C15.50375,8.68903624 15.0168881,8.39373718 14.5159475,8.16107383 C14.0150069,7.92841047 13.4718603,7.77032107 12.8864916,7.68680089 L12.8864916,11.1588367 C13.3592894,11.2662198 13.8123806,11.3974638 14.2457786,11.5525727 C14.6791767,11.7076816 15.0647263,11.9134961 15.402439,12.1700224 C15.7401518,12.4265486 16.0075037,12.7397446 16.2045028,13.1096197 C16.4015019,13.4794948 16.5,13.9328832 16.5,14.4697987 Z M9.4249531,9.27964206 C9.4249531,9.5302026 9.47842348,9.74496555 9.58536585,9.92393736 C9.69230823,10.1029092 9.84427669,10.2520501 10.0412758,10.3713647 C10.2382749,10.4906792 10.4690418,10.5891122 10.7335835,10.6666667 C10.9981252,10.7442211 11.2879909,10.8187916 11.6031895,10.8903803 L11.6031895,7.65100671 C10.927764,7.69873253 10.3958744,7.85682192 10.0075047,8.12527964 C9.61913502,8.39373736 9.4249531,8.77852098 9.4249531,9.27964206 Z M12.8864916,16.3310962 C13.5394029,16.2833704 14.0515929,16.1193153 14.4230769,15.8389262 C14.794561,15.558537 14.9803002,15.1558565 14.9803002,14.6308725 C14.9803002,14.3803119 14.9324583,14.165549 14.836773,13.9865772 C14.7410877,13.8076054 14.6031904,13.6584644 14.4230769,13.5391499 C14.2429635,13.4198353 14.0234535,13.3154367 13.7645403,13.2259508 C13.5056272,13.1364649 13.2129472,13.0559288 12.8864916,12.98434 L12.8864916,16.3310962 Z" id="path-1"></path>
    </defs>
    <g id="Style-Guide" stroke="none" stroke-width="1" fill="none" fill-rule="evenodd">
        <g id="Style/Side---Dashboard" transform="translate(-1033.000000, -631.000000)">
            <g id="Side---Dashboard-Copy-2" transform="translate(150.000000, 150.000000)">
                <g id="Side-Dashboard-Copy-8" transform="translate(847.000000, 239.000000)">
                    <g id="Components/Suggestive/Single/Default-max-Height" transform="translate(12.000000, 18.000000)">
                        <g id="Item-01-Copy-3" transform="translate(12.000000, 218.000000)">
                            <g id="Fund-Manager" transform="translate(12.000000, 6.000000)">
                                <path d="M7.48226588,0.868935828 C10.9787767,0.289645276 14.4846881,0 18,0 C21.5127444,0 25.0255619,0.289222328 28.5384524,0.867666984 L28.5384533,0.867661885 C31.9226478,1.42491501 34.575103,4.0773713 35.1323548,7.46156602 C35.7107849,10.9743773 36,14.4871887 36,18 C36,21.5118828 35.7109378,25.0237657 35.1328134,28.5356485 C34.575696,31.9199211 31.9232779,34.5725134 28.539042,35.129853 C25.0166143,35.709951 21.5036003,36 18,36 C14.4938098,36 10.9876929,35.709522 7.48164945,35.1285661 L7.48165047,35.1285599 C4.11817456,34.5712276 1.47747355,31.943498 0.903585713,28.5828072 C0.301195238,25.0552048 0,21.5276024 0,18 C0,14.4714586 0.301355603,10.9429172 0.904066808,7.41437587 L0.904067545,7.41437599 C1.47809416,4.05376703 4.11883313,1.42617844 7.48226588,0.868935828 Z" id="Combined-Shape" fill="#1B62F8"></path>
                                <g id="icon/setting-fill" transform="translate(6.000000, 6.000000)">
                                    <mask id="mask-2" fill="white">
                                        <use xlink:href="#path-1"></use>
                                    </mask>
                                    <use id="$" fill="#2E384D" fill-rule="nonzero" xlink:href="#path-1"></use>
                                    <g id="Group" mask="url(#mask-2)" fill="#FFFFFF">
                                        <g id="COLOR/-black">
                                            <rect id="Color/Black" x="0" y="0" width="24" height="24"></rect>
                                        </g>
                                    </g>
                                </g>
                            </g>
                        </g>
                    </g>
                </g>
            </g>
        </g>
    </g>
</svg>