<?xml version="1.0" encoding="UTF-8"?>
<svg width="1038px" height="300px" viewBox="0 0 1038 300" version="1.1" xmlns="http://www.w3.org/2000/svg" xmlns:xlink="http://www.w3.org/1999/xlink">
    <g id="Components/Logo/iknito---SF---Gray-01" stroke="none" stroke-width="1" fill="none" fill-rule="evenodd">
        <g id="iknito---SF" fill="#738297">
            <path d="M911.629672,187.799935 C912.568019,189.156777 913.046796,190.775964 912.996392,192.422069 C912.996392,196.953573 911.994131,199.370375 909.989609,199.672475 C909.807379,199.853735 909.442921,198.856805 908.896233,196.681683 C906.709482,189.612536 900.878145,186.077963 891.402222,186.077963 C885.836094,185.993645 880.384656,187.65526 875.821619,190.826979 C871.540773,193.496878 868.955069,198.181262 868.988021,203.207048 C868.988021,211.001235 874.27267,219.339203 884.841968,228.220951 C895.593496,237.283959 900.969259,247.887678 900.969259,260.032109 C901.072582,270.468105 897.047444,280.526263 889.762159,288.036804 C882.290758,296.012251 873.543753,300 863.521143,300 C859.904505,300.004345 856.308804,299.454103 852.86073,298.368633 C841.744744,294.92469 835.457834,289.033734 834,280.695767 C834.022429,279.963811 834.113946,279.235571 834.273344,278.520645 C834.455573,277.614344 834.692471,276.708044 834.965815,275.801743 C835.195929,275.013914 835.469691,274.239353 835.785847,273.481613 C836.059191,272.847202 836.368981,272.53906 836.733439,272.53906 C837.097898,272.53906 837.006783,272.72032 837.006783,273.08284 C838.540579,278.714495 842.025918,283.6258 846.847164,286.949243 C850.719946,289.887327 855.201935,291.930647 859.967672,292.930828 C860.958526,293.119443 861.96565,293.210512 862.974455,293.202718 L865.981238,293.202718 C874.728243,293.202718 881.835185,290.665076 887.302064,285.589791 C892.676981,280.725935 895.668287,273.78334 895.502381,266.557475 C895.502381,255.500605 889.853273,244.624995 878.555058,233.930646 C868.836163,225.230158 864.007088,216.34841 864.067831,207.285402 C864.067831,199.491215 867.347958,192.693959 873.908212,186.893634 C879.572153,181.908388 886.846671,179.110534 894.409005,179.008817 C901.285537,178.805666 907.786403,182.124346 911.629672,187.799935 Z M1033.20014,180.096307 C1036.39396,180.821229 1038,181.636767 1038,182.54292 C1038,182.72415 1037.45249,182.814766 1036.35746,182.814766 C1035.22324,182.630612 1034.07566,182.539688 1032.92638,182.54292 L1029.27629,182.54292 C1015.40596,182.54292 997.338034,185.170763 975.072505,190.42645 C974.89,194.594754 971.696175,201.239876 965.491027,210.361816 L954.942276,226.255739 L950.708176,232.653179 C956.731277,231.351703 962.824836,230.39564 968.958609,229.789735 C975.346261,229.161469 981.916417,228.666106 988.669078,228.303644 C991.589147,228.303644 993.049182,228.847336 993.049182,229.93472 L991.954156,230.478411 C984.106469,231.384564 976.441287,232.592768 968.958609,234.103023 C961.475932,235.613278 954.175758,237.334969 947.058089,239.268095 C935.925325,258.599358 930.358942,272.463499 930.358942,280.860516 C930.415045,282.698712 930.690732,284.523792 931.180212,286.297434 C931.567564,288.348141 933.469342,289.76452 935.560316,289.559585 C936.472838,289.559585 936.929098,290.103276 936.929098,291.19066 C936.885869,292.760559 936.356987,294.279182 935.414312,295.540194 C934.469557,296.972207 932.900764,297.878711 931.180212,297.986807 C928.923415,298.13861 926.784513,296.970424 925.705082,294.996503 C924.509378,292.736909 923.924559,290.207889 924.007791,287.656663 C924.007791,278.776364 930.304191,263.009303 942.89699,240.355479 C941.105462,240.781739 939.362585,241.389007 937.695617,242.167785 C936.109613,242.913829 934.460752,243.520256 932.768,243.980091 C932.220487,243.980091 931.94673,243.617629 931.94673,242.892707 C931.94673,239.086865 933.680521,236.821482 937.148104,236.09656 C938.608138,235.734099 940.104674,235.317268 941.655961,234.864192 C943.207248,234.411115 944.904538,234.012408 946.729581,233.649947 C948.189616,231.112719 949.740903,228.436547 951.383442,225.621432 C953.025981,222.806316 954.851024,219.86434 956.858572,216.795502 C963.063719,206.284127 966.622554,198.128751 967.535076,192.329372 C958.04485,194.74578 952.204711,196.558086 950.014659,197.766289 C949.526856,197.991504 949.019953,198.173443 948.499873,198.309981 C948.01515,198.465209 947.51201,198.556604 947.003338,198.581827 C946.490786,198.624782 945.986271,198.434606 945.631531,198.064729 C945.27679,197.694851 945.110102,197.185181 945.178294,196.678906 C945.178294,193.235525 947.277094,191.060758 951.474694,190.154605 L967.078815,186.892454 C966.348797,185.442609 964.706258,184.717687 962.151198,184.717687 L960.782415,184.717687 C960.505626,184.427706 960.407942,184.011983 960.526909,183.630303 C960.526909,183.449073 960.709413,183.177227 961.074422,182.814766 C961.317969,182.592136 961.595072,182.40869 961.895692,182.271074 C963.430538,181.532484 965.117906,181.160131 966.823309,181.18369 C969.716442,181.071939 972.44238,182.529507 973.940978,184.989533 C994.016455,181.00246 1009.80308,179.008923 1021.30085,179.008923 C1025.29544,178.936855 1029.28588,179.301511 1033.20014,180.096307 Z M423.013329,245.009489 C424.936692,245.009489 426.53852,245.73626 427.818814,247.189802 L428.008446,247.413284 L428.008446,245.389035 L430.683251,245.389035 L430.683251,259.906695 L430.680997,260.313205 C430.653948,262.714284 430.383459,264.431707 429.86953,265.465472 C429.32705,266.556668 428.467675,267.418556 427.291405,268.051133 C426.115136,268.683711 424.667626,269 422.948876,269 C420.90786,269 419.258935,268.549288 418.002099,267.647865 C416.811412,266.793885 416.204017,265.530657 416.179914,263.858181 L416.181298,263.575646 L419.001122,263.986821 L419.038542,264.213974 C419.180588,264.951982 419.495751,265.498299 419.984032,265.852926 C420.703759,266.380074 421.686669,266.643648 422.932763,266.643648 C424.275536,266.643648 425.312157,266.380074 426.042626,265.852926 C426.773095,265.325778 427.267235,264.58777 427.525048,263.638904 C427.675438,263.059041 427.745263,261.841328 427.734521,259.985767 C426.466942,261.451239 424.887841,262.183975 422.997216,262.183975 C420.644677,262.183975 418.823876,261.351081 417.534813,259.685293 C416.245751,258.019504 415.60122,256.021613 415.60122,253.691618 C415.60122,252.089088 415.89663,250.610438 416.48745,249.255667 C417.078271,247.900896 417.93496,246.854507 419.057519,246.1165 C420.180077,245.378492 421.498681,245.009489 423.013329,245.009489 Z M79,0 C93.3594035,0 105,11.6405965 105,26 C105,29.9319656 104.127186,33.6600745 102.564734,37.0011493 L148,37 C153.522847,37 158,41.4771525 158,47 L158,259 C158,264.522847 153.522847,269 148,269 L10,269 C4.4771525,269 6.76353751e-16,264.522847 0,259 L0,47 C-6.76353751e-16,41.4771525 4.4771525,37 10,37 L55.4352655,37.0011493 C53.8728143,33.6600745 53,29.9319656 53,26 C53,11.6405965 64.6405965,0 79,0 Z M807.013329,244.720919 C808.936692,244.720919 810.53852,245.44769 811.818814,246.901232 L812.008446,247.124714 L812.008446,245.100465 L814.683251,245.100465 L814.683251,259.618125 L814.680997,260.024635 C814.653948,262.425714 814.383459,264.143137 813.86953,265.176902 C813.32705,266.268098 812.467675,267.129986 811.291405,267.762563 C810.115136,268.395141 808.667626,268.71143 806.948876,268.71143 C804.90786,268.71143 803.258935,268.260718 802.002099,267.359295 C800.811412,266.505315 800.204017,265.242087 800.179914,263.569611 L800.181298,263.287076 L803.001122,263.698251 L803.038542,263.925404 C803.180588,264.663412 803.495751,265.209729 803.984032,265.564356 C804.703759,266.091504 805.686669,266.355078 806.932763,266.355078 C808.275536,266.355078 809.312157,266.091504 810.042626,265.564356 C810.773095,265.037208 811.267235,264.2992 811.525048,263.350334 C811.675438,262.770471 811.745263,261.552758 811.734521,259.697197 C810.466942,261.162669 808.887841,261.895405 806.997216,261.895405 C804.644677,261.895405 802.823876,261.062511 801.534813,259.396723 C800.245751,257.730935 799.60122,255.733043 799.60122,253.403048 C799.60122,251.800518 799.89663,250.321868 800.48745,248.967097 C801.078271,247.612326 801.93496,246.565937 803.057519,245.82793 C804.180077,245.089922 805.498681,244.720919 807.013329,244.720919 Z M58.5047118,42.0001032 L14,42 C9.1181973,42 5.14420858,45.8868137 5.00383711,50.7346377 L5,51 L5,255 C5,259.881803 8.88681368,263.855791 13.7346377,263.996163 L14,264 L144,264 C148.881803,264 152.855791,260.113186 152.996163,255.265362 L153,255 L153,51 C153,46.0294373 148.970563,42 144,42 L99.4952882,42.0001032 C94.7365838,48.0871226 87.3252427,52 79,52 C70.6747573,52 63.2634162,48.0871226 58.5047118,42.0001032 Z M527.918945,245.009489 C529.261719,245.009489 530.440674,245.199262 531.455811,245.578809 C532.470947,245.958355 533.220215,246.472325 533.703613,247.120717 C534.138672,247.70427 534.451914,248.465024 534.64334,249.402978 L534.702637,249.722193 L531.866699,250.10174 L531.825484,249.870666 C531.667902,249.116103 531.30835,248.518378 530.746826,248.077491 C530.12915,247.592514 529.256348,247.350026 528.128418,247.350026 C526.796387,247.350026 525.845703,247.566157 525.276367,247.998419 C524.707031,248.43068 524.422363,248.936742 524.422363,249.516605 C524.422363,249.885609 524.540527,250.217712 524.776855,250.512915 C525.013184,250.818661 525.383789,251.071692 525.888672,251.272008 C526.178711,251.377438 527.032715,251.619926 528.450684,251.999473 C530.502441,252.537164 531.933838,252.977333 532.744873,253.319979 C533.555908,253.662625 534.192383,254.16078 534.654297,254.814444 C535.116211,255.468108 535.347168,256.279916 535.347168,257.249868 C535.347168,258.198735 535.065186,259.092251 534.501221,259.930416 C533.937256,260.768582 533.123535,261.416974 532.060059,261.875593 C530.996582,262.334212 529.793457,262.563521 528.450684,262.563521 C526.227051,262.563521 524.532471,262.110174 523.366943,261.203479 C522.274261,260.353453 521.552154,259.118876 521.20062,257.499749 L521.135254,257.170796 L524.003418,256.727992 L524.045703,256.983643 C524.235249,257.987532 524.66964,258.766838 525.348877,259.32156 C526.084717,259.922509 527.113281,260.222984 528.43457,260.222984 C529.766602,260.222984 530.754883,259.956774 531.399414,259.424354 C532.043945,258.891935 532.366211,258.267264 532.366211,257.550343 C532.366211,256.907222 532.081543,256.40116 531.512207,256.032156 C531.114746,255.779125 530.126465,255.457565 528.547363,255.067475 C526.42041,254.540327 524.946045,254.084344 524.124268,253.699526 C523.30249,253.314707 522.679443,252.782288 522.255127,252.102267 C521.830811,251.422246 521.618652,250.67106 521.618652,249.848708 C521.618652,249.100158 521.793213,248.406958 522.142334,247.769109 C522.491455,247.13126 522.966797,246.601476 523.568359,246.179758 C524.019531,245.852926 524.634521,245.576173 525.41333,245.349499 C526.192139,245.122826 527.027344,245.009489 527.918945,245.009489 Z M264.625634,245.009489 C266.978173,245.009489 268.901024,245.765946 270.394188,247.278861 C271.887353,248.791776 272.633935,250.881919 272.633935,253.549288 C272.633935,255.710596 272.303612,257.410648 271.642968,258.649446 C270.982323,259.888245 270.020897,260.85029 268.75869,261.535582 C267.496483,262.220875 266.118798,262.563521 264.625634,262.563521 C262.230126,262.563521 260.293847,261.8097 258.816796,260.302056 C257.339745,258.794412 256.60122,256.622562 256.60122,253.786505 C256.60122,250.676331 257.482079,248.372694 259.243798,246.875593 C260.715478,245.631523 262.509423,245.009489 264.625634,245.009489 Z M455.593407,245.009489 C457.881493,245.009489 459.750634,245.773853 461.200829,247.302583 C462.651024,248.831313 463.376122,250.982077 463.376122,253.754876 C463.376122,253.889826 463.372685,254.078756 463.36581,254.321666 L463.360009,254.513969 L450.59829,254.513969 L450.623404,254.854845 C450.773837,256.533894 451.297204,257.833026 452.193505,258.75224 C453.14956,259.732736 454.341942,260.222984 455.770653,260.222984 C456.83413,260.222984 457.741845,259.948867 458.493798,259.400633 C459.183088,258.898085 459.741495,258.120907 460.16902,257.0691 L460.282372,256.775435 L463.279442,257.139167 L463.186099,257.456877 C462.695777,259.022877 461.851403,260.250659 460.652978,261.140221 C459.374657,262.089088 457.741845,262.563521 455.75454,262.563521 C453.25161,262.563521 451.266991,261.807064 449.800683,260.294149 C448.334374,258.781234 447.60122,256.659462 447.60122,253.928835 C447.60122,251.103321 448.342431,248.910385 449.824853,247.350026 C451.307274,245.789668 453.230126,245.009489 455.593407,245.009489 Z M620.625634,245.009489 C622.978173,245.009489 624.901024,245.765946 626.394188,247.278861 C627.887353,248.791776 628.633935,250.881919 628.633935,253.549288 C628.633935,255.710596 628.303612,257.410648 627.642968,258.649446 C626.982323,259.888245 626.020897,260.85029 624.75869,261.535582 C623.496483,262.220875 622.118798,262.563521 620.625634,262.563521 C618.230126,262.563521 616.293847,261.8097 614.816796,260.302056 C613.339745,258.794412 612.60122,256.622562 612.60122,253.786505 C612.60122,250.676331 613.482079,248.372694 615.243798,246.875593 C616.715478,245.631523 618.509423,245.009489 620.625634,245.009489 Z M650.50161,245.389035 L650.50161,254.703743 L650.502398,254.994588 C650.509751,256.321689 650.56857,257.226322 650.678856,257.708487 C650.861474,258.457037 651.248192,259.044808 651.839013,259.471798 C652.429833,259.898788 653.160302,260.112283 654.030419,260.112283 C654.900536,260.112283 655.716942,259.893516 656.479638,259.455983 C657.242333,259.01845 657.782128,258.422773 658.099022,257.668951 C658.39154,256.973115 658.54905,255.987567 658.571552,254.712305 L658.574364,254.387454 L658.574364,245.389035 L661.474755,245.389035 L661.474755,262.183975 L658.880517,262.183975 L658.880517,259.716921 L658.711523,259.949196 C657.396817,261.69208 655.64309,262.563521 653.450341,262.563521 C652.440575,262.563521 651.497948,262.373748 650.62246,261.994201 C649.746972,261.614655 649.097069,261.137586 648.672753,260.562994 C648.248437,259.988403 647.950341,259.28466 647.778466,258.451766 C647.670149,257.939554 647.611477,257.152712 647.602451,256.091241 L647.60122,255.794939 L647.60122,245.389035 L650.50161,245.389035 Z M358.593407,245.009489 C360.881493,245.009489 362.750634,245.773853 364.200829,247.302583 C365.651024,248.831313 366.376122,250.982077 366.376122,253.754876 C366.376122,253.889826 366.372685,254.078756 366.36581,254.321666 L366.360009,254.513969 L353.59829,254.513969 L353.623404,254.854845 C353.773837,256.533894 354.297204,257.833026 355.193505,258.75224 C356.14956,259.732736 357.341942,260.222984 358.770653,260.222984 C359.83413,260.222984 360.741845,259.948867 361.493798,259.400633 C362.183088,258.898085 362.741495,258.120907 363.16902,257.0691 L363.282372,256.775435 L366.279442,257.139167 L366.186099,257.456877 C365.695777,259.022877 364.851403,260.250659 363.652978,261.140221 C362.374657,262.089088 360.741845,262.563521 358.75454,262.563521 C356.25161,262.563521 354.266991,261.807064 352.800683,260.294149 C351.334374,258.781234 350.60122,256.659462 350.60122,253.928835 C350.60122,251.103321 351.342431,248.910385 352.824853,247.350026 C354.307274,245.789668 356.230126,245.009489 358.593407,245.009489 Z M398.441552,239 L398.441552,262.183975 L395.750634,262.183975 L395.750634,260.064839 L395.606223,260.277393 C394.525994,261.801478 392.978916,262.563521 390.964989,262.563521 C389.600731,262.563521 388.346581,262.194518 387.202538,261.45651 C386.058495,260.718503 385.172265,259.687928 384.543847,258.364787 C383.915429,257.041645 383.60122,255.520822 383.60122,253.802319 C383.60122,252.125988 383.885888,250.605166 384.455224,249.239852 C385.02456,247.874539 385.878563,246.82815 387.017235,246.100685 C388.155907,245.373221 389.428856,245.009489 390.836083,245.009489 C391.867333,245.009489 392.78579,245.222984 393.591454,245.649974 C394.3076,246.02952 394.904919,246.511112 395.38341,247.09475 L395.557274,247.318397 L395.557274,239 L398.441552,239 Z M687.400048,245.009489 C689.258446,245.009489 690.778466,245.470743 691.960106,246.393253 C693.067895,247.258105 693.802748,248.463493 694.164668,250.009417 L694.232079,250.323142 L691.412255,250.750132 L691.340808,250.473928 C691.063041,249.482524 690.611514,248.725883 689.986229,248.204006 C689.304101,247.634686 688.479638,247.350026 687.512841,247.350026 C686.051903,247.350026 684.864892,247.863996 683.951806,248.891935 C683.03872,249.919873 682.582177,251.546125 682.582177,253.770691 C682.582177,256.026885 683.022606,257.666315 683.903466,258.688983 C684.784325,259.71165 685.933739,260.222984 687.351708,260.222984 C688.49038,260.222984 689.441063,259.880337 690.203759,259.195045 C690.911976,258.558702 691.379371,257.604187 691.605943,256.331501 L691.653954,256.032156 L694.506005,256.395888 L694.445984,256.732014 C694.098963,258.50148 693.321363,259.899718 692.113183,260.926726 C690.829491,262.017923 689.253075,262.563521 687.383935,262.563521 C685.042138,262.563521 683.159569,261.812335 681.736229,260.309963 C680.31289,258.807591 679.60122,256.654191 679.60122,253.849763 C679.60122,252.036373 679.907372,250.449657 680.519677,249.089615 C681.131981,247.729573 682.063866,246.709541 683.315331,246.02952 C684.566796,245.349499 685.928368,245.009489 687.400048,245.009489 Z M333.50161,239 L333.50161,262.183975 L330.60122,262.183975 L330.60122,239 L333.50161,239 Z M594.244336,239 L594.244336,241.735899 L586.429395,241.735899 L586.429395,262.183975 L583.303418,262.183975 L583.303418,241.735899 L575.520703,241.735899 L575.520703,239 L594.244336,239 Z M716.50161,239 L716.50161,247.318397 L716.707296,247.093279 C718.026813,245.704085 719.666259,245.009489 721.625634,245.009489 C722.893212,245.009489 723.994286,245.254613 724.928856,245.74486 C725.863427,246.235108 726.532128,246.912493 726.93496,247.777016 C727.309018,248.579788 727.509407,249.718912 727.536125,251.194389 L727.539208,251.540854 L727.539208,262.183975 L724.638817,262.183975 L724.638817,251.540854 L724.634628,251.26136 C724.595526,249.981163 724.282714,249.038482 723.69619,248.433316 C723.067772,247.784924 722.178856,247.460727 721.029442,247.460727 C720.170067,247.460727 719.361718,247.679494 718.604394,248.117027 C717.847069,248.55456 717.307274,249.147601 716.985009,249.896152 C716.689599,250.582323 716.529585,251.507688 716.504967,252.672246 L716.50161,252.995783 L716.50161,262.183975 L713.60122,262.183975 L713.60122,239 L716.50161,239 Z M233.65786,245.009489 C234.68911,245.009489 235.637108,245.191355 236.501854,245.555087 C237.366601,245.918819 238.013817,246.395888 238.443505,246.986294 C238.873192,247.5767 239.173974,248.277807 239.345849,249.089615 C239.445007,249.576213 239.4984,250.399687 239.506028,251.560037 L239.506981,262.183975 L236.606591,262.183975 L236.606591,251.967844 L236.603794,251.658809 C236.585151,250.652871 236.47329,249.888724 236.268212,249.366368 C236.042626,248.791776 235.642479,248.333158 235.067772,247.990511 C234.493065,247.647865 233.818993,247.476542 233.045556,247.476542 C231.810204,247.476542 230.744042,247.86136 229.847069,248.630996 C228.994945,249.362151 228.54758,250.716539 228.504974,252.694162 L228.50161,253.011597 L228.50161,262.183975 L225.60122,262.183975 L225.60122,245.389035 L228.211571,245.389035 L228.211571,247.777016 L228.371585,247.551194 C229.620663,245.856724 231.382755,245.009489 233.65786,245.009489 Z M192.125977,239 L192.125977,250.497101 L203.856445,239 L208.094238,239 L198.18457,248.39378 L208.529297,262.183975 L204.404297,262.183975 L195.993164,250.449657 L192.125977,254.150237 L192.125977,262.183975 L189,262.183975 L189,239 L192.125977,239 Z M748.50161,245.389035 L748.50161,262.183975 L745.60122,262.183975 L745.60122,245.389035 L748.50161,245.389035 Z M507.135254,245.389035 L507.135254,262.183975 L504.234863,262.183975 L504.234863,245.389035 L507.135254,245.389035 Z M775.65786,245.009489 C776.68911,245.009489 777.637108,245.191355 778.501854,245.555087 C779.366601,245.918819 780.013817,246.395888 780.443505,246.986294 C780.873192,247.5767 781.173974,248.277807 781.345849,249.089615 C781.445007,249.576213 781.4984,250.399687 781.506028,251.560037 L781.506981,262.183975 L778.606591,262.183975 L778.606591,251.967844 L778.603794,251.658809 C778.585151,250.652871 778.47329,249.888724 778.268212,249.366368 C778.042626,248.791776 777.642479,248.333158 777.067772,247.990511 C776.493065,247.647865 775.818993,247.476542 775.045556,247.476542 C773.810204,247.476542 772.744042,247.86136 771.847069,248.630996 C770.994945,249.362151 770.54758,250.716539 770.504974,252.694162 L770.50161,253.011597 L770.50161,262.183975 L767.60122,262.183975 L767.60122,245.389035 L770.211571,245.389035 L770.211571,247.777016 L770.371585,247.551194 C771.620663,245.856724 773.382755,245.009489 775.65786,245.009489 Z M292.59829,245.389035 L295.321435,255.083289 L296.336,258.687 L296.353507,258.620105 C296.428859,258.317529 296.694139,257.281225 297.149348,255.511195 L297.222802,255.225619 L299.945946,245.389035 L302.926903,245.389035 L305.488915,255.130733 L306.342919,258.341065 L307.325829,255.099104 L310.258446,245.389035 L313.078271,245.389035 L307.728661,262.183975 L304.715478,262.183975 L301.992333,252.125988 L301.331,249.264 L297.867333,262.183975 L294.838036,262.183975 L289.60122,245.389035 L292.59829,245.389035 Z M264.625634,247.365841 C263.175438,247.365841 261.972313,247.89826 261.016259,248.9631 C260.060204,250.027939 259.582177,251.635741 259.582177,253.786505 C259.582177,255.937269 260.060204,257.547707 261.016259,258.617818 C261.972313,259.687928 263.175438,260.222984 264.625634,260.222984 C266.065087,260.222984 267.262841,259.685293 268.218896,258.60991 C269.17495,257.534528 269.652978,255.895098 269.652978,253.691618 C269.652978,251.614655 269.172265,250.041118 268.210839,248.971007 C267.249413,247.900896 266.054345,247.365841 264.625634,247.365841 Z M391.110009,247.365841 C389.820946,247.365841 388.744042,247.882446 387.879296,248.915656 C387.01455,249.948867 386.582177,251.577754 386.582177,253.802319 C386.582177,255.953084 387.044091,257.560886 387.967919,258.625725 C388.891747,259.690564 389.982079,260.222984 391.238915,260.222984 C392.506493,260.222984 393.583397,259.714286 394.469628,258.69689 C395.355858,257.679494 395.798974,256.127043 395.798974,254.039536 C395.798974,251.74117 395.347802,250.054296 394.445458,248.978914 C393.543114,247.903532 392.431298,247.365841 391.110009,247.365841 Z M620.625634,247.365841 C619.175438,247.365841 617.972313,247.89826 617.016259,248.9631 C616.060204,250.027939 615.582177,251.635741 615.582177,253.786505 C615.582177,255.937269 616.060204,257.547707 617.016259,258.617818 C617.972313,259.687928 619.175438,260.222984 620.625634,260.222984 C622.065087,260.222984 623.262841,259.685293 624.218896,258.60991 C625.17495,257.534528 625.652978,255.895098 625.652978,253.691618 C625.652978,251.614655 625.172265,250.041118 624.210839,248.971007 C623.249413,247.900896 622.054345,247.365841 620.625634,247.365841 Z M423.222802,247.365841 C421.933739,247.365841 420.838036,247.87981 419.935692,248.907749 C419.033349,249.935688 418.582177,251.461782 418.582177,253.486031 C418.582177,255.68951 419.027978,257.297312 419.919579,258.309436 C420.811181,259.32156 421.928368,259.827623 423.271142,259.827623 C424.603173,259.827623 425.72036,259.324196 426.622704,258.317343 C427.525048,257.31049 427.97622,255.731682 427.97622,253.580917 C427.97622,251.52504 427.51162,249.975224 426.582421,248.931471 C425.653222,247.887717 424.533349,247.365841 423.222802,247.365841 Z M807.222802,247.077271 C805.933739,247.077271 804.838036,247.59124 803.935692,248.619179 C803.033349,249.647118 802.582177,251.173212 802.582177,253.197461 C802.582177,255.40094 803.027978,257.008742 803.919579,258.020866 C804.811181,259.03299 805.928368,259.539053 807.271142,259.539053 C808.603173,259.539053 809.72036,259.035626 810.622704,258.028773 C811.525048,257.02192 811.97622,255.443112 811.97622,253.292347 C811.97622,251.23647 811.51162,249.686654 810.582421,248.642901 C809.653222,247.599147 808.533349,247.077271 807.222802,247.077271 Z M358.625634,247.350026 C357.293603,247.350026 356.173729,247.787559 355.266015,248.662625 C354.418814,249.479353 353.924864,250.553236 353.784166,251.884273 L353.759423,252.173432 L363.314599,252.173432 C363.185692,250.760675 362.820458,249.701107 362.218896,248.994729 C361.295067,247.89826 360.097313,247.350026 358.625634,247.350026 Z M455.625634,247.350026 C454.293603,247.350026 453.173729,247.787559 452.266015,248.662625 C451.418814,249.479353 450.924864,250.553236 450.784166,251.884273 L450.759423,252.173432 L460.314599,252.173432 C460.185692,250.760675 459.820458,249.701107 459.218896,248.994729 C458.295067,247.89826 457.097313,247.350026 455.625634,247.350026 Z M507.135254,239 L507.135254,242.27359 L504.234863,242.27359 L504.234863,239 L507.135254,239 Z M748.50161,239 L748.50161,242.27359 L745.60122,242.27359 L745.60122,239 L748.50161,239 Z M106,72 L106,188.80382 L52,234 L53.2331288,72 L106,72 Z M694.401585,68 C694.404295,68.0119362 694.406851,68.0287922 694.409256,68.0505063 L745.337201,68.0544707 C748.309964,68.0544707 753.493766,68.1900349 758.958736,68.3938977 L760.092798,68.4370287 C760.471734,68.4517158 760.851375,68.4667057 761.231086,68.4819763 L762.483551,68.533359 C769.155752,68.8125214 775.634325,69.1711202 778.468131,69.4888661 C787.233795,70.4693388 797.329799,71.0322028 806.787969,78.0044536 C811.543545,81.4670891 815.311993,86.1040293 817.722269,91.4587187 C820.605583,98.4887258 822.058002,106.01676 821.998227,113.605632 L821.986646,114.390887 L821.986646,226.963686 L786.286156,227 C786.284325,226.991938 786.282565,226.981633 786.280875,226.969103 L735.002822,226.963118 C731.789363,226.95292 726.333616,226.806342 720.708601,226.59291 L719.456654,226.544409 L717.971523,226.484264 C711.381817,226.211024 705.020465,225.861499 702.21961,225.547448 C693.453946,224.548818 683.357942,223.985954 673.899772,217.03186 C669.146962,213.55873 665.379536,208.916791 662.965472,203.559438 C660.074003,196.561022 658.604048,189.06357 658.637587,181.500642 L658.646423,180.718054 L658.646423,68.0544707 L694.401585,68 Z M604.722099,68.0544707 L604.722099,88.789654 L620.904863,88.789654 L620.904863,115.807126 L605.177694,115.807126 L605.177115,129.982006 C605.153925,130.483649 604.441396,146.00319 604.355992,160.933054 L604.349661,162.399114 C604.32366,171.421302 604.544267,180.038272 605.305261,184.767044 C606.085696,189.843101 607.499894,194.802061 609.514967,199.528606 C617.399144,217.737619 651.860757,218.364599 652.5492,218.375317 L652.559663,218.375471 L652.559663,226.909215 L652.51575,226.909993 C652.239094,226.914758 650.669045,226.939882 648.199345,226.942149 L647.389994,226.942055 C636.631319,226.929804 611.777638,226.467458 599.036262,222.678657 C576.220022,217.068174 570.771096,198.80233 569.732338,187.054813 C569.636662,185.96086 569.597937,183.371232 569.593666,180.102138 L569.593577,178.897322 C569.595635,176.981891 569.607651,174.884096 569.625674,172.747275 L569.633755,171.829523 C569.63845,171.317274 569.643455,170.803966 569.648717,170.291553 L569.656796,169.523848 C569.659548,169.268333 569.662358,169.013285 569.665219,168.758949 L569.673946,167.998319 C569.756697,160.923588 569.87393,154.598061 569.878018,154.37829 L569.878128,68.0544707 L604.722099,68.0544707 Z M374.591524,68.3631381 L374.591524,72.1397739 C391.496618,69.7462135 408.543752,68.4845059 425.618259,68.3631381 C454.958632,68.6718054 466.877019,71.377184 475.515116,76.0979788 C485.064405,81.3090099 488.946082,86.5926687 491.224061,92.4391915 C491.943175,94.2900309 492.5517,96.1816569 493.046445,98.1041453 C493.210459,98.6670092 493.538488,100.046934 493.811846,101.354231 C494.085203,102.661528 494.486127,105.748201 494.559023,106.801302 C494.559023,107.442846 494.613694,108.114651 494.723037,108.816718 C496.709435,137.867763 496.235615,226.836588 496.235615,226.836588 L459.551038,226.836588 L459.551908,226.714088 C459.561793,225.322198 459.654363,212.268617 459.752201,197.804325 L459.758879,196.816057 C459.768906,195.330738 459.778969,193.8331 459.788986,192.334109 L459.800361,190.628376 L459.810096,189.162457 C459.876408,179.156687 459.93804,169.43679 459.970186,163.287427 C460.061305,148.544022 460.84493,119.983213 456.033838,104.422748 C452.972234,94.9448441 450.676031,76.9331963 401.690365,76.4066461 C392.620248,76.3916068 383.559837,76.9982691 374.5733,78.2223364 L374.5733,226.800274 L341.096118,226.927372 L341.096118,68.3631381 L374.591524,68.3631381 Z M548.392228,68.3631381 L548.392228,226.927372 L514.987941,226.927372 L514.987941,68.3631381 L548.392228,68.3631381 Z M262.350931,153.700582 L323.09097,226.927372 L289.231086,226.927372 L228.782629,153.700582 L262.350931,153.700582 Z M222.404288,68.3631381 L222.404288,226.927372 L189,226.927372 L189,68.3631381 L222.404288,68.3631381 Z M705.775999,75.2419816 L704.653512,75.2419852 C699.987869,75.2446406 696.259443,75.2795222 694.399231,75.3008483 C694.172727,96.3225719 693.207794,157.169622 696.223969,184.966769 C696.860115,190.981614 698.914538,196.761401 702.21961,201.834532 C705.917888,207.096407 711.136568,211.111621 717.181377,213.346009 C723.940942,216.229767 738.574681,219.007508 756.323962,219.535254 L757.055126,219.55567 L757.937672,219.577813 C758.379499,219.588522 758.822052,219.59869 759.264875,219.608341 L761.036514,219.64424 C761.479239,219.652553 761.921621,219.660379 762.363202,219.667742 L763.245161,219.681856 C767.207945,219.742651 771.081082,219.767152 774.530262,219.772156 L775.289631,219.772954 L775.477197,219.773058 L776.400733,219.773037 C780.894889,219.770788 784.477285,219.737789 786.288522,219.717219 C786.514506,198.714604 787.48074,137.852716 784.463772,110.033231 C783.820893,104.019907 781.76701,98.2416388 778.468131,93.1654676 C774.774769,87.903066 769.553851,83.8924658 763.506363,81.672148 C756.654202,78.7307297 741.710658,75.9164097 723.632615,75.4443303 C723.045078,75.4298047 722.455705,75.4162379 721.865582,75.4035763 L720.536997,75.3765927 L720.094049,75.3682537 L719.208633,75.3525289 L718.324538,75.3380418 L717.44258,75.3247521 C713.333025,75.2654653 709.319883,75.2439867 705.775999,75.2419816 Z M322.489583,68.3449812 L262.205141,144.04111 L228.782629,144.04111 L288.921281,68.3449812 L322.489583,68.3449812 Z M531.87,0 C546.229403,0 557.87,11.6405965 557.87,26 C557.87,40.3594035 546.229403,52 531.87,52 C517.510597,52 505.87,40.3594035 505.87,26 C505.87,11.6405965 517.510597,0 531.87,0 Z" id="Combined-Shape"></path>
        </g>
    </g>
</svg>
