<svg xmlns="http://www.w3.org/2000/svg" xmlns:xlink="http://www.w3.org/1999/xlink" viewBox="0 0 36 36">
  <defs>
    <path d="M10.5 2a8.5 8.5 0 016.677 13.761l4.53 4.532a1 1 0 01-1.414 1.414l-4.532-4.53A8.5 8.5 0 1110.5 2zm0 2a6.5 6.5 0 104.548 11.144l.045-.051c.016-.016.033-.032.05-.046A6.5 6.5 0 0010.5 4z" id="a"/>
  </defs>
  <g fill="none" fill-rule="evenodd">
    <path d="M7.482.869A64.243 64.243 0 0128.538.868a8 8 0 016.594 6.594A64.76 64.76 0 0136 18c0 3.512-.29 7.024-.867 10.536a8 8 0 01-6.594 6.594c-3.522.58-7.035.87-10.539.87a64.24 64.24 0 01-10.518-.871 8 8 0 01-6.578-6.546A62.764 62.764 0 010 18c0-3.529.301-7.057.904-10.586A8 8 0 017.482.87z" fill="#1B62F8"/>
    <g transform="translate(6 6)">
      <mask id="b" fill="#fff">
        <use xlink:href="#a"/>
      </mask>
      <use fill="#000" fill-rule="nonzero" xlink:href="#a"/>
      <g mask="url(#b)" fill="#FFF">
        <path d="M0 0h24v24H0z"/>
      </g>
    </g>
  </g>
</svg>
