<?xml version="1.0" encoding="UTF-8"?>
<svg xmlns="http://www.w3.org/2000/svg" viewBox="0 0 36 36">
  <title>Smart Fund</title>
  <g id="Style" stroke="none" stroke-width="1" fill="none" fill-rule="evenodd">
    <g id="Style/Side---Dashboard" transform="translate(-1033 -631)" fill="#1B62F8">
      <g id="Side---Dashboard-Copy-2" transform="translate(150 150)">
        <g id="Side-Dashboard-Copy-8" transform="translate(847 239)">
          <g id="Components/Suggestive/Single/Default-max-Height" transform="translate(12 18)">
            <g id="Item-01-Copy-3" transform="translate(12 218)">
              <g id="icon---Smart-fund" transform="translate(12 6)">
                <path d="M18 0c3.161 0 6.323.234 9.485.703l1.053.165a8 8 0 016.594 6.594A64.76 64.76 0 0136 18c0 3.512-.29 7.024-.867 10.536a8 8 0 01-6.594 6.594c-3.522.58-7.035.87-10.539.87-3.187 0-6.375-.24-9.562-.72l-.956-.151a8 8 0 01-6.578-6.546A62.764 62.764 0 010 18c0-3.208.25-6.416.747-9.623l.157-.963A8 8 0 017.482.87 64.243 64.243 0 0118 0zm-1.599 13.567c-1.984 0-4.608 1.303-4.608 3.172 0 .82.33 1.303 1.014 1.912.794.715 1.19 1.219 1.19 2.017 0 1.408-1.344 2.122-2.954 2.122-1.19 0-2.315-.735-2.315-1.807 0-.126.022-.273.066-.357 0-.063-.066-.084-.088-.084-.022 0-.044.021-.067.063-.176.42-.529 1.24-.639 1.702.022.084.154.168.309.23.64.316 1.83.463 2.513.463 2.051 0 4.763-1.113 4.763-3.32 0-.714-.308-1.26-1.19-1.953-.838-.672-1.191-1.135-1.191-1.87 0-1.323 1.19-1.912 2.16-1.912 1.126 0 2.096.715 2.096 1.219a.736.736 0 01-.066.315c.022.042.11.084.154.063.088-.315.353-.966.53-1.24a.487.487 0 00-.111-.294c-.353-.357-.97-.44-1.566-.44zM27.89 13c-.022 0-.044 0-.088.021-1.235.462-3.11.61-4.41.61l-.83-.002a52.74 52.74 0 01-1.596-.02c-.066 0-.11.042-.11.126 0 .042 0 .063.132.063.242 0 .683.021.882.042.154.021.176.084.11.231-.705 1.513-1.764 3.299-2.69 4.832-.617 1.03-1.588 2.332-2.183 3.383-.066.126-.11.23-.11.315 0 .261.867.35 2.564.356l.236.001c.177 0 .33 0 .507-.021.089-.021.11-.042.11-.084s-.044-.084-.132-.084c-.86 0-.992-.21-.992-.462 0-.084.022-.21.066-.336.243-.589.838-1.702 1.83-3.32.066-.105.155-.189.287-.189.375.021.948.042 1.411.042.816 0 1.83-.02 2.47-.042.132-.084.33-.441.33-.504l-.043-.042c-.816.252-1.632.378-2.647.378-.926 0-1.389-.189-1.389-.357.441-.84 1.764-3.067 2.272-3.803.11-.168.198-.273.418-.273.197 0 .4.002.607.004l.623.009c.724.012 1.425.03 1.902.03.11-.022.154-.106.22-.253.066-.147.243-.462.353-.588 0-.042-.066-.063-.11-.063z" id="Combined-Shape"/>
              </g>
            </g>
          </g>
        </g>
      </g>
    </g>
  </g>
</svg>
