<?xml version="1.0" encoding="UTF-8"?>
<svg width="36px" height="36px" viewBox="0 0 36 36" version="1.1" xmlns="http://www.w3.org/2000/svg" xmlns:xlink="http://www.w3.org/1999/xlink">
    <title>System Admin</title>
    <defs>
        <path d="M12,2 C13.3807119,2 14.5,3.11928813 14.5,4.5 L14.5,4.57167641 C14.5008544,4.78756929 14.6298389,4.98233581 14.8364711,5.07094785 C15.0390512,5.16035451 15.2756522,5.11745432 15.427411,4.96907768 L15.4770833,4.91940555 C15.946004,4.44996294 16.5823102,4.18618891 17.2458333,4.18618891 C17.9093565,4.18618891 18.5456627,4.44996294 19.0139278,4.91875 C19.4833704,5.38767064 19.7471444,6.02397688 19.7471444,6.6875 C19.7471444,7.35102312 19.4833704,7.98732936 19.0142557,8.45592232 L18.9707188,8.49938747 C18.815879,8.65768109 18.7729788,8.89428214 18.8623855,9.09686221 C18.88595,9.15025539 18.9037757,9.20582822 18.9156655,9.26264557 C19.0147194,9.40867171 19.1802811,9.49928431 19.3583333,9.5 L19.5,9.5 C20.8807119,9.5 22,10.6192881 22,12 C22,13.3807119 20.8807119,14.5 19.5,14.5 L19.4283236,14.5 C19.2124307,14.5008544 19.0176642,14.6298389 18.9326165,14.8282762 C18.8396455,15.0390512 18.8825457,15.2756522 19.0309223,15.427411 L19.0805945,15.4770833 C19.5500371,15.946004 19.8138111,16.5823102 19.8138111,17.2458333 C19.8138111,17.9093565 19.5500371,18.5456627 19.08125,19.0139278 C18.6123294,19.4833704 17.9760231,19.7471444 17.3125,19.7471444 C16.6489769,19.7471444 16.0126706,19.4833704 15.5440777,19.0142557 L15.5006125,18.9707188 C15.3423189,18.815879 15.1057179,18.7729788 14.8949429,18.8659499 C14.6965055,18.9509975 14.5675211,19.145764 14.5666667,19.3583333 L14.5666667,19.5 C14.5666667,20.8807119 13.4473785,22 12.0666667,22 C10.6859548,22 9.56666667,20.8807119 9.56666667,19.5 C9.56169343,19.2221316 9.42109488,19.025554 9.16352888,18.9290522 C8.96094881,18.8396455 8.72434776,18.8825457 8.57258898,19.0309223 L8.52291667,19.0805945 C8.05399602,19.5500371 7.41768979,19.8138111 6.75416667,19.8138111 C6.09064355,19.8138111 5.45433731,19.5500371 4.98607221,19.08125 C4.51662961,18.6123294 4.25285557,17.9760231 4.25285557,17.3125 C4.25285557,16.6489769 4.51662961,16.0126706 4.98574435,15.5440777 L5.02928118,15.5006125 C5.18412099,15.3423189 5.22702118,15.1057179 5.13405014,14.8949429 C5.04900248,14.6965055 4.85423595,14.5675211 4.64166667,14.5666667 L4.5,14.5666667 C3.11928813,14.5666667 2,13.4473785 2,12.0666667 C2,10.6859548 3.11928813,9.56666667 4.5,9.56666667 C4.77786838,9.56169343 4.97444599,9.42109488 5.07094785,9.16352888 C5.16035451,8.96094881 5.11745432,8.72434776 4.96907768,8.57258898 L4.91940555,8.52291667 C4.44996294,8.05399602 4.18618891,7.41768979 4.18618891,6.75416667 C4.18618891,6.09064355 4.44996294,5.45433731 4.91875,4.98607221 C5.38767064,4.51662961 6.02397688,4.25285557 6.6875,4.25285557 C7.35102312,4.25285557 7.98732936,4.51662961 8.45592232,4.98574435 L8.49938747,5.02928118 C8.65768109,5.18412099 8.89428214,5.22702118 9.09686221,5.13761451 C9.15025539,5.11404998 9.20582822,5.09622426 9.26264557,5.08433455 C9.40867171,4.98528062 9.49928431,4.81971892 9.5,4.64166667 L9.5,4.5 C9.5,3.11928813 10.6192881,2 12,2 Z M12,3.66666667 C11.5397627,3.66666667 11.1666667,4.03976271 11.1666667,4.5 L11.1666667,4.64499026 C11.1631496,5.52516892 10.6372899,6.31921705 9.8282762,6.66594986 C9.75785944,6.69612957 9.6837794,6.71638628 9.60815494,6.72628508 C8.82059817,7.00236504 7.93719152,6.81079764 7.32741102,6.21425565 L7.27708333,6.16392779 C7.12077645,6.00744692 6.90867437,5.91952224 6.6875,5.91952224 C6.46632563,5.91952224 6.25422355,6.00744692 6.09726112,6.16458333 C5.94078025,6.32089021 5.85285557,6.53299229 5.85285557,6.75416667 C5.85285557,6.97534104 5.94078025,7.18744312 6.09758898,7.34407768 L6.15405215,7.40061253 C6.78532214,8.04596347 6.96022292,9.01056774 6.61544675,9.78765091 C6.30244538,10.6386914 5.50101358,11.2119009 4.575,11.2333333 L4.5,11.2333333 C4.03976271,11.2333333 3.66666667,11.6064294 3.66666667,12.0666667 C3.66666667,12.526904 4.03976271,12.9 4.5,12.9 L4.64499026,12.9000066 C5.52516892,12.9035171 6.31921705,13.4293768 6.66238549,14.2301955 C7.02688958,15.0560989 6.85198881,16.0207032 6.21425565,16.672589 L6.16392779,16.7229167 C6.00744692,16.8792235 5.91952224,17.0913256 5.91952224,17.3125 C5.91952224,17.5336744 6.00744692,17.7457765 6.16458333,17.9027389 C6.32089021,18.0592197 6.53299229,18.1471444 6.75416667,18.1471444 C6.97534104,18.1471444 7.18744312,18.0592197 7.34407768,17.902411 L7.40061253,17.8459478 C8.04596347,17.2146779 9.01056774,17.0397771 9.78765091,17.3845532 C10.6386914,17.6975546 11.2119009,18.4989864 11.2333333,19.425 L11.2333333,19.5 C11.2333333,19.9602373 11.6064294,20.3333333 12.0666667,20.3333333 C12.526904,20.3333333 12.9,19.9602373 12.9,19.5 L12.9000066,19.3550097 C12.9035171,18.4748311 13.4293768,17.6807829 14.2301955,17.3376145 C15.0560989,16.9731104 16.0207032,17.1480112 16.672589,17.7857443 L16.7229167,17.8360722 C16.8792235,17.9925531 17.0913256,18.0804778 17.3125,18.0804778 C17.5336744,18.0804778 17.7457765,17.9925531 17.9027389,17.8354167 C18.0592197,17.6791098 18.1471444,17.4670077 18.1471444,17.2458333 C18.1471444,17.024659 18.0592197,16.8125569 17.902411,16.6559223 L17.8459478,16.5993875 C17.2146779,15.9540365 17.0397771,14.9894323 17.4042812,14.1635289 C17.7474496,13.3627101 18.5414977,12.8368504 19.425,12.8333333 L19.5,12.8333333 C19.9602373,12.8333333 20.3333333,12.4602373 20.3333333,12 C20.3333333,11.5397627 19.9602373,11.1666667 19.5,11.1666667 L19.3550097,11.1666667 C18.4748311,11.1631496 17.6807829,10.6372899 17.3340501,9.8282762 C17.3038704,9.75785944 17.2836137,9.6837794 17.2737149,9.60815494 C16.997635,8.82059817 17.1892024,7.93719152 17.7857443,7.32741102 L17.8360722,7.27708333 C17.9925531,7.12077645 18.0804778,6.90867437 18.0804778,6.6875 C18.0804778,6.46632563 17.9925531,6.25422355 17.8354167,6.09726112 C17.6791098,5.94078025 17.4670077,5.85285557 17.2458333,5.85285557 C17.024659,5.85285557 16.8125569,5.94078025 16.6559223,6.09758898 L16.5993875,6.15405215 C15.9540365,6.78532214 14.9894323,6.96022292 14.1717238,6.59928319 C13.3627101,6.25255038 12.8368504,5.45850225 12.8333333,4.575 L12.8333333,4.5 C12.8333333,4.03976271 12.4602373,3.66666667 12,3.66666667 Z M12,8.66666667 C13.8409492,8.66666667 15.3333333,10.1590508 15.3333333,12 C15.3333333,13.8409492 13.8409492,15.3333333 12,15.3333333 C10.1590508,15.3333333 8.66666667,13.8409492 8.66666667,12 C8.66666667,10.1590508 10.1590508,8.66666667 12,8.66666667 Z M12,13.6666667 C12.9204746,13.6666667 13.6666667,12.9204746 13.6666667,12 C13.6666667,11.0795254 12.9204746,10.3333333 12,10.3333333 C11.0795254,10.3333333 10.3333333,11.0795254 10.3333333,12 C10.3333333,12.9204746 11.0795254,13.6666667 12,13.6666667 Z" id="path-1"></path>
    </defs>
    <g id="Style-Guide" stroke="none" stroke-width="1" fill="none" fill-rule="evenodd">
        <g id="Style/Side---Dashboard" transform="translate(-1033.000000, -523.000000)">
            <g id="Side---Dashboard-Copy-2" transform="translate(150.000000, 150.000000)">
                <g id="Side-Dashboard-Copy-8" transform="translate(847.000000, 239.000000)">
                    <g id="Components/Suggestive/Single/Default-max-Height" transform="translate(12.000000, 18.000000)">
                        <g id="Item-01" transform="translate(12.000000, 110.000000)">
                            <g id="System-Admin" transform="translate(12.000000, 6.000000)">
                                <path d="M7.48226588,0.868935828 C10.9787767,0.289645276 14.4846881,0 18,0 C21.5127444,0 25.0255619,0.289222328 28.5384524,0.867666984 L28.5384533,0.867661885 C31.9226478,1.42491501 34.575103,4.0773713 35.1323548,7.46156602 C35.7107849,10.9743773 36,14.4871887 36,18 C36,21.5118828 35.7109378,25.0237657 35.1328134,28.5356485 C34.575696,31.9199211 31.9232779,34.5725134 28.539042,35.129853 C25.0166143,35.709951 21.5036003,36 18,36 C14.4938098,36 10.9876929,35.709522 7.48164945,35.1285661 L7.48165047,35.1285599 C4.11817456,34.5712276 1.47747355,31.943498 0.903585713,28.5828072 C0.301195238,25.0552048 0,21.5276024 0,18 C0,14.4714586 0.301355603,10.9429172 0.904066808,7.41437587 L0.904067545,7.41437599 C1.47809416,4.05376703 4.11883313,1.42617844 7.48226588,0.868935828 Z" id="Combined-Shape" fill="#1B62F8"></path>
                                <g id="icon/setting-fill" transform="translate(6.000000, 6.000000)">
                                    <mask id="mask-2" fill="white">
                                        <use xlink:href="#path-1"></use>
                                    </mask>
                                    <use id="Combined-Shape" fill="#000000" fill-rule="nonzero" xlink:href="#path-1"></use>
                                    <g id="Group" mask="url(#mask-2)" fill="#FFFFFF">
                                        <g id="COLOR/-black">
                                            <rect id="Color/Black" x="0" y="0" width="24" height="24"></rect>
                                        </g>
                                    </g>
                                </g>
                            </g>
                        </g>
                    </g>
                </g>
            </g>
        </g>
    </g>
</svg>