<?xml version="1.0" encoding="UTF-8"?>
<svg xmlns="http://www.w3.org/2000/svg" viewBox="0 0 1039 301">
  <title>iKNiTO SmartFund</title>
  <g id="Symbols" stroke="none" stroke-width="1" fill="none" fill-rule="evenodd">
    <g id="iknito---SF">
      <path d="M911.63 187.8a7.71 7.71 0 011.366 4.622c0 4.532-1.002 6.948-3.006 7.25-.183.182-.547-.815-1.094-2.99-2.187-7.07-8.018-10.604-17.494-10.604a26.596 26.596 0 00-15.58 4.749 14.483 14.483 0 00-6.834 12.38c0 7.794 5.285 16.132 15.854 25.014 10.751 9.063 16.127 19.667 16.127 31.811a39.655 39.655 0 01-11.207 28.005c-7.471 7.975-16.218 11.963-26.24 11.963a35.362 35.362 0 01-10.661-1.631c-11.116-3.444-17.403-9.335-18.861-17.673.022-.732.114-1.46.273-2.175.183-.907.42-1.813.693-2.72.23-.787.504-1.562.82-2.32.273-.634.583-.942.947-.942.365 0 .274.181.274.544a24.745 24.745 0 009.84 13.866 32.883 32.883 0 0013.12 5.982c.992.188 1.999.28 3.007.272h3.007c8.747 0 15.854-2.538 21.321-7.613a24.897 24.897 0 008.2-19.033c0-11.056-5.649-21.932-16.947-32.626-9.719-8.7-14.548-17.583-14.487-26.646 0-7.794 3.28-14.591 9.84-20.391a31.676 31.676 0 0120.501-7.885c6.877-.203 13.377 3.115 17.22 8.79zm121.57-7.704c3.194.725 4.8 1.54 4.8 2.447 0 .181-.548.272-1.643.272a21.04 21.04 0 00-3.43-.272h-3.65c-13.871 0-31.939 2.628-54.204 7.883-.183 4.169-3.377 10.814-9.582 19.936l-10.549 15.894-4.234 6.397a161.649 161.649 0 0118.25-2.863 445.243 445.243 0 0119.711-1.486c2.92 0 4.38.543 4.38 1.63l-1.095.544a276.5 276.5 0 00-22.995 3.625 340.766 340.766 0 00-21.9 5.165c-11.134 19.331-16.7 33.195-16.7 41.593.056 1.838.332 3.663.821 5.436.388 2.051 2.29 3.468 4.38 3.263.913 0 1.37.543 1.37 1.63a7.614 7.614 0 01-1.516 4.35 5.483 5.483 0 01-4.234 2.447 5.794 5.794 0 01-5.475-2.99 14.668 14.668 0 01-1.697-7.34c0-8.88 6.296-24.648 18.889-47.302a27.12 27.12 0 00-5.201 1.813 30.138 30.138 0 01-4.928 1.812c-.548 0-.821-.362-.821-1.087 0-3.806 1.734-6.072 5.201-6.796a114.9 114.9 0 004.508-1.233c1.551-.453 3.249-.852 5.074-1.214 1.46-2.537 3.01-5.213 4.653-8.029a203.672 203.672 0 015.476-8.825c6.205-10.512 9.764-18.667 10.676-24.467-9.49 2.417-15.33 4.23-17.52 5.437a9.167 9.167 0 01-1.515.544 5.859 5.859 0 01-1.497.272 1.704 1.704 0 01-1.371-.517 1.678 1.678 0 01-.454-1.386c0-3.443 2.1-5.618 6.297-6.524l15.604-3.263c-.73-1.45-2.373-2.174-4.928-2.174h-1.369a1.1 1.1 0 01-.255-1.088c0-.18.182-.453.547-.815.244-.223.521-.406.822-.544a11.015 11.015 0 014.927-1.087 7.971 7.971 0 017.118 3.806c20.075-3.988 35.862-5.981 47.36-5.981a54.83 54.83 0 0111.9 1.087z" id="Combined-Shape" stroke="#04BFBF" stroke-width="2" fill="#04BFBF" fill-rule="nonzero"/>
      <g id="Asset-1-copy">
        <path d="M79 0c14.36 0 26 11.64 26 26 0 3.932-.873 7.66-2.435 11.001L148 37c5.523 0 10 4.477 10 10v212c0 5.523-4.477 10-10 10H10c-5.523 0-10-4.477-10-10V47c0-5.523 4.477-10 10-10l45.435.001A25.901 25.901 0 0153 26C53 11.64 64.64 0 79 0zm65 42H99.495C94.737 48.087 87.325 52 79 52c-8.325 0-15.737-3.913-20.495-10H14a9 9 0 00-8.996 8.735L5 51v204a9 9 0 008.735 8.996L14 264h130a9 9 0 008.996-8.735L153 255V51a9 9 0 00-9-9z" id="Combined-Shape" fill="#738297"/>
        <circle id="Oval" fill="#04BFBF" cx="531.87" cy="26" r="26"/>
        <path id="Path" fill="#1B62F8" d="M53.233 72H106v116.804L52 234z"/>
        <path d="M694.402 68a.482.482 0 01.007.05l50.928.004c2.973 0 8.157.136 13.622.34l1.134.043 1.138.045 1.253.051c6.672.28 13.15.638 15.984.956 8.766.98 18.862 1.543 28.32 8.515a33.815 33.815 0 0110.934 13.455 57.173 57.173 0 014.276 22.147l-.011.785v112.573l-35.7.036a.363.363 0 01-.006-.03l-51.278-.007c-3.214-.01-8.67-.157-14.294-.37l-1.252-.049-1.485-.06c-6.59-.273-12.952-.623-15.752-.937-8.766-.998-18.862-1.561-28.32-8.515a33.978 33.978 0 01-10.935-13.473 57.102 57.102 0 01-4.327-22.058l.008-.783V68.054L694.402 68zm-89.68.054V88.79h16.183v27.017h-15.727v14.175c-.039.822-1.93 42.005.127 54.785a61.45 61.45 0 004.21 14.762c7.964 18.393 43.045 18.846 43.045 18.846v8.534l-.044.001c-.277.005-1.847.03-4.317.032h-.809c-10.759-.012-35.612-.475-48.354-4.263-22.816-5.61-28.265-23.877-29.304-35.624-.095-1.094-.134-3.684-.138-6.953v-1.205c.002-1.915.014-4.013.032-6.15l.008-.917c.078-8.58.244-17.458.244-17.458V68.054h34.844zm-382.318.31v158.563H189V68.363h33.404zm39.947 85.337l60.74 73.226h-33.86l-60.448-73.226h33.568zm286.041-85.338v158.564h-33.404V68.363h33.404zm-173.8 0v3.777a383.427 383.427 0 0151.026-3.777c29.34.309 41.259 3.014 49.897 7.735 9.55 5.211 13.431 10.495 15.71 16.341a50.162 50.162 0 011.821 5.665c.164.563.492 1.943.766 3.25.273 1.308.674 4.394.747 5.447 0 .642.055 1.314.164 2.016 1.986 29.05 1.513 118.02 1.513 118.02H459.55v-.123c.012-1.566.128-17.891.238-34.38l.011-1.706c.07-10.515.136-20.891.17-27.34.091-14.744.875-43.305-3.936-58.865-3.062-9.478-5.358-27.49-54.344-28.016-9.07-.015-18.13.591-27.117 1.815V226.8l-33.477.127V68.363h33.496zm331.184 6.879h-1.122a965.54 965.54 0 00-10.255.059c-.226 21.022-1.191 81.869 1.825 109.666a38.275 38.275 0 005.996 16.868 31.73 31.73 0 0014.961 11.511c6.76 2.884 21.394 5.662 39.143 6.19l.731.02.883.022 1.327.03 1.772.036 1.326.024.882.014c3.963.06 7.836.085 11.285.09l.76.001h1.111c4.494-.002 8.076-.035 9.888-.056.226-21.002 1.192-81.864-1.825-109.684a38.456 38.456 0 00-5.996-16.868 31.567 31.567 0 00-14.962-11.493c-6.852-2.941-21.795-5.756-39.873-6.228a541.49 541.49 0 00-1.767-.04l-1.329-.027-.443-.009-.885-.015-.884-.015-.882-.013c-4.11-.06-8.123-.081-11.667-.083zM322.49 68.345l-60.285 75.696h-33.422l60.138-75.696h33.569z" id="Combined-Shape" fill="#000"/>
        <path d="M423.013 245.01c1.924 0 3.526.726 4.806 2.18l.19.223v-2.024h2.674v14.518l-.002.406c-.027 2.401-.298 4.119-.811 5.152-.543 1.092-1.402 1.954-2.579 2.586-1.176.633-2.623.949-4.342.949-2.041 0-3.69-.45-4.947-1.352-1.19-.854-1.798-2.117-1.822-3.79l.001-.282 2.82.41.038.228c.142.738.457 1.284.945 1.639.72.527 1.703.79 2.949.79 1.343 0 2.38-.263 3.11-.79s1.224-1.265 1.482-2.214c.15-.58.22-1.798.21-3.653-1.268 1.465-2.847 2.198-4.738 2.198-2.352 0-4.173-.833-5.462-2.499-1.29-1.665-1.934-3.663-1.934-5.993 0-1.603.296-3.082.886-4.436.591-1.355 1.448-2.401 2.57-3.14 1.123-.738 2.442-1.107 3.956-1.107zm384-.29c1.924 0 3.526.728 4.806 2.181l.19.224V245.1h2.674v14.518l-.002.407c-.027 2.4-.298 4.118-.811 5.152-.543 1.091-1.402 1.953-2.579 2.586-1.176.632-2.623.948-4.342.948-2.041 0-3.69-.45-4.947-1.352-1.19-.854-1.798-2.117-1.822-3.79l.001-.282 2.82.411.038.227c.142.738.457 1.285.945 1.64.72.527 1.703.79 2.949.79 1.343 0 2.38-.263 3.11-.79.73-.528 1.224-1.266 1.482-2.215.15-.58.22-1.797.21-3.653-1.268 1.466-2.847 2.198-4.738 2.198-2.352 0-4.173-.832-5.462-2.498-1.29-1.666-1.934-3.664-1.934-5.994 0-1.602.296-3.081.886-4.436.591-1.355 1.448-2.401 2.57-3.14 1.123-.737 2.442-1.106 3.956-1.106zm-542.387.29c2.352 0 4.275.756 5.768 2.269 1.493 1.513 2.24 3.603 2.24 6.27 0 2.162-.33 3.862-.991 5.1-.66 1.24-1.622 2.201-2.884 2.887-1.263.685-2.64 1.028-4.133 1.028-2.396 0-4.332-.754-5.81-2.262-1.476-1.508-2.215-3.68-2.215-6.515 0-3.11.881-5.414 2.643-6.911 1.471-1.244 3.265-1.867 5.382-1.867zm93.967 0c2.288 0 4.158.764 5.608 2.293 1.45 1.528 2.175 3.68 2.175 6.452 0 .135-.003.324-.01.567l-.006.192h-12.762l.025.34c.15 1.68.674 2.979 1.57 3.898.957.98 2.149 1.471 3.578 1.471 1.063 0 1.97-.274 2.723-.822.69-.503 1.247-1.28 1.675-2.332l.113-.294 2.997.364-.093.318c-.49 1.566-1.335 2.794-2.533 3.683-1.278.95-2.911 1.424-4.898 1.424-2.503 0-4.488-.757-5.954-2.27-1.467-1.513-2.2-3.635-2.2-6.365 0-2.826.741-5.019 2.224-6.579 1.482-1.56 3.405-2.34 5.768-2.34zm291.909.379V254.994c.008 1.328.067 2.232.177 2.714.182.749.57 1.337 1.16 1.764.59.427 1.321.64 2.191.64.87 0 1.687-.218 2.45-.656.762-.438 1.302-1.033 1.619-1.787.317-.754.475-1.848.475-3.282v-8.998h2.9v16.795h-2.593v-2.467l-.17.232c-1.314 1.743-3.068 2.615-5.26 2.615-1.01 0-1.953-.19-2.829-.57-.875-.38-1.525-.856-1.95-1.431-.424-.575-.722-1.278-.894-2.111-.118-.559-.177-1.445-.177-2.657v-10.406h2.9zm-122.583-.38c1.343 0 2.522.19 3.537.57 1.015.38 1.764.893 2.248 1.542.483.648.816 1.515.999 2.601l-2.836.38-.042-.231c-.157-.755-.517-1.353-1.078-1.794-.618-.484-1.49-.727-2.619-.727-1.332 0-2.282.216-2.852.648-.569.433-.854.939-.854 1.519 0 .369.119.7.355.996.236.306.607.559 1.112.759.29.105 1.144.348 2.562.727 2.051.538 3.483.978 4.294 1.321.81.343 1.447.84 1.91 1.494.461.654.692 1.466.692 2.436 0 .949-.282 1.842-.846 2.68-.564.839-1.377 1.487-2.44 1.946-1.064.458-2.268.688-3.61.688-2.224 0-3.919-.454-5.084-1.36-1.166-.907-1.91-2.251-2.232-4.033l2.868-.443.043.256c.19 1.004.624 1.783 1.303 2.338.736.6 1.764.901 3.086.901 1.332 0 2.32-.266 2.964-.799.645-.532.967-1.157.967-1.874 0-.643-.284-1.149-.854-1.518-.397-.253-1.386-.574-2.965-.965-2.127-.527-3.601-.983-4.423-1.367-.822-.385-1.445-.918-1.869-1.598a4.173 4.173 0 01-.636-2.253c0-.749.174-1.442.523-2.08a4.637 4.637 0 011.426-1.59c.452-.326 1.067-.603 1.845-.83a8.928 8.928 0 012.506-.34zm-72.326 0c2.288 0 4.158.765 5.608 2.294 1.45 1.528 2.175 3.68 2.175 6.452 0 .135-.003.324-.01.567l-.006.192h-12.762l.025.34c.15 1.68.674 2.979 1.57 3.898.957.98 2.149 1.471 3.578 1.471 1.063 0 1.97-.274 2.723-.822.69-.503 1.247-1.28 1.675-2.332l.113-.294 2.997.364-.093.318c-.49 1.566-1.335 2.794-2.533 3.683-1.278.95-2.911 1.424-4.898 1.424-2.503 0-4.488-.757-5.954-2.27-1.467-1.513-2.2-3.635-2.2-6.365 0-2.826.741-5.019 2.224-6.579 1.482-1.56 3.405-2.34 5.768-2.34zm231.807 0c1.858 0 3.378.462 4.56 1.384 1.182.923 1.94 2.233 2.272 3.93l-2.82.427-.071-.276c-.278-.991-.73-1.748-1.355-2.27-.682-.57-1.506-.854-2.473-.854-1.461 0-2.648.514-3.561 1.542-.913 1.028-1.37 2.654-1.37 4.879 0 2.256.44 3.895 1.321 4.918.881 1.023 2.03 1.534 3.449 1.534 1.138 0 2.09-.343 2.852-1.028s1.246-1.74 1.45-3.163l2.852.364-.06.336c-.347 1.77-1.125 3.168-2.333 4.195-1.284 1.09-2.86 1.637-4.73 1.637-2.34 0-4.223-.752-5.647-2.254-1.423-1.502-2.135-3.656-2.135-6.46 0-1.814.306-3.4.919-4.76.612-1.36 1.544-2.38 2.795-3.06 1.252-.68 2.613-1.02 4.085-1.02zm-66.774 0c2.352 0 4.275.757 5.768 2.27 1.493 1.513 2.24 3.603 2.24 6.27 0 2.162-.33 3.862-.991 5.1-.66 1.24-1.622 2.201-2.884 2.887-1.263.685-2.64 1.028-4.133 1.028-2.396 0-4.332-.754-5.81-2.262-1.476-1.508-2.215-3.68-2.215-6.515 0-3.11.881-5.414 2.643-6.911 1.471-1.244 3.265-1.867 5.382-1.867zM398.442 239v23.184h-2.691v-2.12l-.145.213c-1.08 1.524-2.627 2.287-4.641 2.287a6.802 6.802 0 01-3.762-1.107c-1.145-.738-2.03-1.77-2.66-3.092-.628-1.323-.942-2.844-.942-4.563 0-1.676.285-3.197.854-4.562.57-1.365 1.424-2.412 2.562-3.14 1.139-.727 2.412-1.09 3.82-1.09 1.03 0 1.949.213 2.754.64a5.79 5.79 0 011.792 1.445l.174.223V239h2.885zm195.802 0v2.736h-7.815v20.448h-3.126v-20.448h-7.782V239h18.723zm-360.586 6.01c1.031 0 1.98.181 2.844.545.865.364 1.512.84 1.942 1.431.43.59.73 1.292.902 2.104.107.527.161 1.45.161 2.767v10.327h-2.9v-10.216l-.003-.31c-.019-1.005-.13-1.77-.336-2.292-.225-.574-.626-1.033-1.2-1.375-.575-.343-1.249-.514-2.022-.514-1.236 0-2.302.384-3.199 1.154-.897.77-1.345 2.23-1.345 4.38v9.173h-2.9v-16.795h2.61v2.388l.16-.226c1.249-1.694 3.01-2.542 5.286-2.542zm542 0c1.031 0 1.98.181 2.844.545.865.364 1.512.84 1.942 1.431.43.59.73 1.292.902 2.104.107.527.161 1.45.161 2.767v10.327h-2.9v-10.216l-.003-.31c-.019-1.005-.13-1.77-.336-2.292-.225-.574-.626-1.033-1.2-1.375-.575-.343-1.249-.514-2.022-.514-1.236 0-2.302.384-3.199 1.154-.897.77-1.345 2.23-1.345 4.38v9.173h-2.9v-16.795h2.61v2.388l.16-.226c1.249-1.694 3.01-2.542 5.286-2.542zM716.502 239v8.318l.205-.225c1.32-1.389 2.96-2.084 4.919-2.084 1.267 0 2.368.246 3.303.736.934.49 1.603 1.167 2.006 2.032.403.865.604 2.12.604 3.764v10.643h-2.9v-10.643l-.004-.28c-.04-1.28-.352-2.223-.939-2.828-.628-.648-1.517-.972-2.667-.972a4.77 4.77 0 00-2.425.656c-.757.438-1.297 1.03-1.619 1.78-.322.748-.483 1.78-.483 3.099v9.188h-2.9V239h2.9zm-524.376 0v11.497L203.856 239h4.238l-9.91 9.394 10.345 13.79h-4.125l-8.41-11.734-3.868 3.7v8.034H189V239h3.126zm100.472 6.389l2.723 9.694 1.016 3.606.017-.069c.079-.318.369-1.45.869-3.394l2.723-9.837h2.98l2.563 9.742.854 3.21.983-3.242 2.932-9.71h2.82l-5.35 16.795h-3.013l-2.723-10.058-.66-2.862-3.465 12.92h-3.029l-5.237-16.795h2.997zm455.904 0v16.795h-2.9v-16.795h2.9zm-241.367 0v16.795h-2.9v-16.795h2.9zM333.502 239v23.184h-2.9V239h2.9zm57.608 8.366c-1.29 0-2.366.516-3.23 1.55-.865 1.033-1.298 2.662-1.298 4.886 0 2.151.462 3.759 1.386 4.824.924 1.065 2.014 1.597 3.27 1.597 1.268 0 2.345-.509 3.232-1.526.886-1.018 1.329-2.57 1.329-4.657 0-2.299-.451-3.986-1.354-5.061-.902-1.075-2.014-1.613-3.335-1.613zm-126.484 0c-1.45 0-2.654.532-3.61 1.597s-1.434 2.673-1.434 4.824c0 2.15.478 3.76 1.434 4.83.956 1.07 2.16 1.606 3.61 1.606 1.44 0 2.637-.538 3.593-1.613s1.434-2.715 1.434-4.918c0-2.077-.48-3.65-1.442-4.721-.962-1.07-2.157-1.605-3.585-1.605zm356 0c-1.45 0-2.654.532-3.61 1.597s-1.434 2.673-1.434 4.824c0 2.15.478 3.76 1.434 4.83.956 1.07 2.16 1.606 3.61 1.606 1.44 0 2.637-.538 3.593-1.613s1.434-2.715 1.434-4.918c0-2.077-.48-3.65-1.442-4.721-.962-1.07-2.157-1.605-3.585-1.605zm-197.403 0c-1.29 0-2.385.514-3.287 1.542-.903 1.028-1.354 2.554-1.354 4.578 0 2.204.446 3.811 1.338 4.823.891 1.013 2.008 1.519 3.351 1.519 1.332 0 2.45-.504 3.352-1.51.902-1.008 1.353-2.586 1.353-4.737 0-2.056-.464-3.606-1.394-4.65-.929-1.043-2.049-1.565-3.36-1.565zm384-.289c-1.29 0-2.385.514-3.287 1.542-.903 1.028-1.354 2.554-1.354 4.578 0 2.204.446 3.812 1.338 4.824.891 1.012 2.008 1.518 3.351 1.518 1.332 0 2.45-.503 3.352-1.51.902-1.007 1.353-2.586 1.353-4.737 0-2.056-.464-3.605-1.394-4.65-.929-1.043-2.049-1.565-3.36-1.565zm-351.597.273c-1.332 0-2.452.438-3.36 1.313-.847.816-1.341 1.89-1.482 3.221l-.025.29h9.556c-.13-1.413-.495-2.473-1.096-3.18-.924-1.096-2.122-1.644-3.593-1.644zm-97 0c-1.332 0-2.452.438-3.36 1.313-.847.816-1.341 1.89-1.482 3.221l-.025.29h9.556c-.13-1.413-.495-2.473-1.096-3.18-.924-1.096-2.122-1.644-3.593-1.644zm148.51-8.35v3.274h-2.901V239h2.9zm241.366 0v3.274h-2.9V239h2.9z" id="Combined-Shape" fill="#738297"/>
      </g>
    </g>
  </g>
</svg>
