<svg xmlns="http://www.w3.org/2000/svg" xmlns:xlink="http://www.w3.org/1999/xlink" viewBox="0 0 1155 200">
  <defs>
    <path d="M4 16.414V20h3.586l12-12L16 4.414l-12 12ZM16.707 2.293l5 5a1 1 0 0 1 0 1.414l-13 13A1 1 0 0 1 8 22H3a1 1 0 0 1-1-1v-5a1 1 0 0 1 .293-.707l13-13a1 1 0 0 1 1.414 0Z" id="path-3"/>
    <path d="M4.707 12.293a1 1 0 1 0-1.414 1.414l5 5a1 1 0 0 0 1.414 0l11-11a1 1 0 1 0-1.414-1.414L9 16.586l-4.293-4.293Z" id="path-5"/>
    <path d="M13 14a5 5 0 0 1 5 5v2a1 1 0 0 1-2 0v-2a3 3 0 0 0-3-3H5a3 3 0 0 0-3 3v2a1 1 0 0 1-2 0v-2a5 5 0 0 1 5-5Zm6.032.88a1 1 0 0 1 1.218-.718A5 5 0 0 1 24 19v2a1 1 0 0 1-2 0v-2a3 3 0 0 0-2.25-2.902 1 1 0 0 1-.718-1.218ZM9 2a5 5 0 1 1 0 10A5 5 0 0 1 9 2Zm6.031.882a1 1 0 0 1 1.217-.72 5 5 0 0 1 0 9.687 1 1 0 0 1-.496-1.938 3 3 0 0 0 0-5.812 1 1 0 0 1-.72-1.217ZM9 4a3 3 0 1 0 0 6 3 3 0 0 0 0-6Z" id="path-7"/>
    <path d="M12 1c6.075 0 11 4.925 11 11s-4.925 11-11 11S1 18.075 1 12 5.925 1 12 1ZM7.053 13.001H3.055a9.008 9.008 0 0 0 6.671 7.71A16.33 16.33 0 0 1 7.053 13Zm13.892 0H16.95a16.3 16.3 0 0 1-2.675 7.709 9.007 9.007 0 0 0 6.67-7.71Zm-6 0H9.058A14.3 14.3 0 0 0 12 20.449 14.288 14.288 0 0 0 14.945 13Zm-5.22-9.71-.036.008A9.008 9.008 0 0 0 3.055 11H7.05a16.3 16.3 0 0 1 2.675-7.71ZM12 3.55A14.288 14.288 0 0 0 9.055 11h5.887A14.3 14.3 0 0 0 12 3.55Zm2.274-.261.189.29A16.336 16.336 0 0 1 16.947 11h3.998a9.008 9.008 0 0 0-6.671-7.71Z" id="path-9"/>
    <path d="M14 1c.043 0 .085.003.126.008L14 1a1 1 0 0 1 .25.031l.03.009c.03.009.061.02.091.031l.027.012a.914.914 0 0 1 .227.137l.082.073 6 6c.03.03.057.06.082.093l-.082-.093a1 1 0 0 1 .21.309l.012.027c.012.03.022.06.031.091l.008.03A.921.921 0 0 1 21 8v12a3 3 0 0 1-3 3H6a3 3 0 0 1-3-3V4a3 3 0 0 1 3-3Zm-1 2H6a1 1 0 0 0-1 1v16a1 1 0 0 0 1 1h12a1 1 0 0 0 1-1V9h-5a1 1 0 0 1-.993-.883L13 8V3Zm3 13a1 1 0 0 1 0 2H8a1 1 0 0 1 0-2Zm0-4a1 1 0 0 1 0 2H8a1 1 0 0 1 0-2Zm-6-4a1 1 0 0 1 0 2H8a1 1 0 1 1 0-2Zm5-3.585V7h2.586L15 4.415Z" id="path-11"/>
    <rect id="path-1" x="0" y="0" width="1155" height="200" rx="12"/>
  </defs>
  <g id="Web" stroke="none" stroke-width="1" fill="none" fill-rule="evenodd">
    <g id="Web/Researcher/Overview" transform="translate(-186 -258)">
      <g id="USP" transform="translate(186 258)">
        <mask id="mask-2" fill="#fff">
          <use xlink:href="#path-1"/>
        </mask>
        <g id="Group-24" mask="url(#mask-2)">
          <g transform="translate(24 44)">
            <g id="Group-16" transform="translate(23 48)" font-family="SourceSansPro-Regular, Source Sans Pro" font-size="14" font-weight="normal">
              <text id="Manuscript-submissio" fill="#A1B1C7">
                                <tspan x="8.59" y="14">Apply For Fund </tspan>
                            </text>
            </g>
            <g id="Group-20" transform="translate(58)">
              <rect id="Rectangle" stroke="#C1CDDD" stroke-width="2" x="0" y="0" width="36" height="36" rx="8"/>
              <g id="icon/file-text" transform="translate(6 6)">
                <mask id="mask-4" fill="#fff">
                  <use xlink:href="#path-3"/>
                </mask>
                <use id="Shape" fill="#000" fill-rule="nonzero" xlink:href="#path-3"/>
                <g id="Group" mask="url(#mask-4)" fill="#C1CDDD">
                  <g id="COLOR/-black">
                    <path id="Color/Black" d="M0 0h24v24H0z"/>
                  </g>
                </g>
              </g>
            </g>
          </g>
        </g>
        <path d="M118 62c52.59 21.751 90.663 34.085 114.22 37 23.557 2.915 53.15-.751 88.78-11" id="Line" stroke="#C1CDDD" stroke-width="2" stroke-linecap="round" stroke-dasharray="4,4" mask="url(#mask-2)"/>
        <path d="M596 62.93C648.33 84.063 686.216 96.086 709.657 99c23.441 2.915 52.889-.751 88.343-11" id="Line-Copy-2" stroke="#C1CDDD" stroke-width="2" stroke-linecap="round" stroke-dasharray="4,4" mask="url(#mask-2)"/>
        <path d="M357 46.862c53.324 17.593 91.361 27.824 114.112 30.695 22.75 2.87 52.38 1.46 88.888-4.232" id="Line-Copy" stroke="#C1CDDD" stroke-width="2" stroke-linecap="round" stroke-dasharray="4,4" mask="url(#mask-2)" transform="matrix(1 0 0 -1 0 125.862)"/>
        <path d="M834 48.305c49.46 16.418 85.969 26.085 109.526 29 23.557 2.915 54.715 2.07 93.474-2.537" id="Line-Copy-3" stroke="#C1CDDD" stroke-width="2" stroke-linecap="round" stroke-dasharray="4,4" mask="url(#mask-2)" transform="matrix(1 0 0 -1 0 127.305)"/>
        <g id="Group-24-Copy" mask="url(#mask-2)">
          <g transform="translate(263 69)">
            <g id="Group-15" transform="translate(12 48)" font-family="SourceSansPro-Regular, Source Sans Pro" font-size="14" font-weight="normal">
              <text id="Initial-Validation-c" fill="#A1B1C7">
                                <tspan x="6.833" y="14">Voucher is reserved</tspan>
                            </text>
            </g>
            <g id="Group-20" transform="translate(58)">
              <rect id="Rectangle" stroke="#C1CDDD" stroke-width="2" x="0" y="0" width="36" height="36" rx="8"/>
              <g id="icon/file-text" transform="translate(6 6)">
                <mask id="mask-6" fill="#fff">
                  <use xlink:href="#path-5"/>
                </mask>
                <use id="Shape" fill="#000" fill-rule="nonzero" xlink:href="#path-5"/>
                <g id="Group" mask="url(#mask-6)" fill="#C1CDDD">
                  <g id="COLOR/-black">
                    <path id="Color/Black" d="M0 0h24v24H0z"/>
                  </g>
                </g>
              </g>
            </g>
          </g>
        </g>
        <g id="Group-24-Copy-2" mask="url(#mask-2)">
          <g transform="translate(502 44)">
            <g id="Group-10" transform="translate(-12 48)" font-family="SourceSansPro-Regular, Source Sans Pro" font-size="14" font-weight="normal">
              <text id="Associate-and-Review-e" fill="#A1B1C7">
                                <tspan x="1.31" y="14">Upload your acceptance letter</tspan>
                            </text>
            </g>
            <g id="Group-20" transform="translate(58)">
              <rect id="Rectangle" stroke="#C1CDDD" stroke-width="2" x="0" y="0" width="36" height="36" rx="8"/>
              <g id="icon/file-text" transform="translate(6 6)">
                <mask id="mask-8" fill="#fff">
                  <use xlink:href="#path-7"/>
                </mask>
                <use id="Combined-Shape" fill="#000" fill-rule="nonzero" xlink:href="#path-7"/>
                <g id="Group" mask="url(#mask-8)" fill="#C1CDDD">
                  <g id="COLOR/-black">
                    <path id="Color/Black" d="M0 0h24v24H0z"/>
                  </g>
                </g>
              </g>
            </g>
          </g>
        </g>
        <g id="Group-24-Copy-3" mask="url(#mask-2)">
          <g transform="translate(740 69)">
            <text id="Collaborative-peer-r" font-family="SourceSansPro-Regular, Source Sans Pro" font-size="14" font-weight="normal">
                            <tspan x="1.506" y="62" fill="#A1B1C7">Documents are checked</tspan>
                        </text>
            <g id="Group-20" stroke-width="1" fill-rule="evenodd" transform="translate(58)">
              <rect id="Rectangle" stroke="#C1CDDD" stroke-width="2" x="0" y="0" width="36" height="36" rx="8"/>
              <g id="icon/file-text" transform="translate(6 6)">
                <mask id="mask-10" fill="#fff">
                  <use xlink:href="#path-9"/>
                </mask>
                <use id="Combined-Shape" fill="#000" fill-rule="nonzero" xlink:href="#path-9"/>
                <g id="Group" mask="url(#mask-10)" fill="#C1CDDD">
                  <g id="COLOR/-black">
                    <path id="Color/Black" d="M0 0h24v24H0z"/>
                  </g>
                </g>
              </g>
            </g>
          </g>
        </g>
        <g id="Group-24-Copy-4" mask="url(#mask-2)">
          <g transform="translate(979 44)">
            <text id="Final-publication-de" transform="translate(14 -10)" font-family="SourceSansPro-Regular, Source Sans Pro" font-size="14" font-weight="normal">
                            <tspan x=".995" y="72" fill="#A1B1C7">Receive your voucher</tspan>
                        </text>
            <g id="Group-20" stroke-width="1" fill-rule="evenodd" transform="translate(58)">
              <rect id="Rectangle" stroke="#C1CDDD" stroke-width="2" x="0" y="0" width="36" height="36" rx="8"/>
              <g id="icon/file-text" transform="translate(6 6)">
                <mask id="mask-12" fill="#fff">
                  <use xlink:href="#path-11"/>
                </mask>
                <use id="Combined-Shape" fill="#000" fill-rule="nonzero" xlink:href="#path-11"/>
                <g id="Group" mask="url(#mask-12)" fill="#C1CDDD">
                  <g id="COLOR/-black">
                    <path id="Color/Black" d="M0 0h24v24H0z"/>
                  </g>
                </g>
              </g>
            </g>
          </g>
        </g>
      </g>
    </g>
  </g>
</svg>
