<?xml version="1.0" encoding="UTF-8"?>
<svg xmlns="http://www.w3.org/2000/svg" viewBox="0 0 250 200">
  <g id="Components/Illustration/EmptyInbox" stroke="none" stroke-width="1" fill="none" fill-rule="evenodd">
    <g id="Group" transform="translate(42 56)">
      <path d="M160 10a7 7 0 010 14h-40a7 7 0 010 14h22a7 7 0 010 14h-10.174c-4.874 0-8.826 3.134-8.826 7 0 2.577 2 4.91 6 7a7 7 0 010 14H46a7 7 0 010-14H7a7 7 0 010-14h40a7 7 0 000-14H22a7 7 0 010-14h40a7 7 0 010-14h98zm0 28a7 7 0 110 14 7 7 0 010-14z" id="Background" fill="#EFF3FA" opacity=".499"/>
      <path d="M71.119 58.307A12.103 12.103 0 0071 60c0 6.627 5.373 12 12 12s12-5.373 12-12c0-.575-.04-1.14-.119-1.693H124V85a3 3 0 01-3 3H45a3 3 0 01-3-3V58.307h29.119z" id="Path" fill="#FFF"/>
      <path d="M96 58c0 7.18-5.82 13-13 13s-13-5.82-13-13c0-.233.006-.464.018-.693H42l9.56-28.268A3 3 0 0154.402 27h57.196a3 3 0 012.842 2.039L124 57.307H95.982c.012.23.018.46.018.693z" id="Path" fill="#FFF"/>
      <path d="M94.098 58.955C94.098 64.502 89.129 70 83 70c-6.129 0-11.098-5.498-11.098-11.045 0-.18.006-1.359.016-1.536H51l8.161-19.844C59.513 36.634 60.49 36 61.587 36h42.826c1.098 0 2.074.634 2.426 1.575L115 57.42H94.082c.01.177.016 1.356.016 1.536z" id="Path" fill="#EFF3FA"/>
      <path d="M111.598 28.25a1.748 1.748 0 011.657 1.19h0l9.495 28.072V84c0 .483-.196.92-.513 1.237a1.745 1.745 0 01-1.237.513h0-76c-.483 0-.92-.196-1.237-.513A1.745 1.745 0 0143.25 84h0V57.512l9.495-28.073a1.748 1.748 0 011.657-1.189h0z" id="Rectangle" stroke="#D5DFED" stroke-width="2.5"/>
      <path d="M48.574 57H51h-2.426zM56 57h12.745c1.876 0 1.876 1.319 1.876 2 0 6.627 5.496 12 12.276 12 6.78 0 12.276-5.373 12.276-12 0-.681 0-2 1.877-2H122" id="Shape" stroke="#D5DFED" stroke-width="2.5" stroke-linecap="round" stroke-linejoin="round"/>
      <path d="M82.1 0v16.756M56 4.303l11.1 12.453m41-12.453L97 16.756" id="lines" stroke="#C1CDDD" stroke-width="2.5" stroke-linecap="round" stroke-linejoin="round"/>
    </g>
  </g>
</svg>
