<?xml version="1.0" encoding="UTF-8"?>
<svg xmlns="http://www.w3.org/2000/svg" viewBox="0 0 250 200">
  <g id="Components/Illustration/NoSearchResult" stroke="none" stroke-width="1" fill="none" fill-rule="evenodd">
    <g id="Group" transform="translate(47 57)">
      <path d="M160 0a7 7 0 010 14h-40a7 7 0 010 14h22a7 7 0 010 14h-10.174c-4.874 0-8.826 3.134-8.826 7 0 2.577 2 4.91 6 7a7 7 0 010 14H46a7 7 0 010-14H7a7 7 0 010-14h40a7 7 0 000-14H22a7 7 0 010-14h40a7 7 0 010-14h98zm0 28a7 7 0 110 14 7 7 0 010-14z" id="Background" fill="#EFF3FA" opacity=".499"/>
      <g id="Search" transform="translate(40 1)" stroke-width="2.5">
        <circle id="Oval" stroke="#D5DFED" fill="#EFF3FA" cx="33.5" cy="33.5" r="33.5"/>
        <path d="M28.132 59.494c1.759.325 3.548.493 5.368.506C48.136 60 60 48.136 60 33.5S48.136 7 33.5 7c-3.76 0-7.336.783-10.576 2.195A26.604 26.604 0 009.896 21.442 26.388 26.388 0 007 33.5a26.402 26.402 0 006.684 17.596" id="Oval" stroke="#D5DFED" fill="#FFF" stroke-linecap="round"/>
        <path d="M16.797 54.075a26.473 26.473 0 007.204 4.172" id="Oval" stroke="#D5DFED" stroke-linecap="round"/>
        <path d="M34 15c-1.723 0-3.392.23-4.979.659C20.943 17.847 15 25.229 15 34" id="Oval" stroke="#E3EBF7" stroke-linecap="round"/>
        <path id="Path-4" stroke="#D6D6D8" d="M61 60l6 6"/>
        <path d="M69.457 63.61c1.24 0 2.481.474 3.427 1.42h0L83.97 76.116a4.831 4.831 0 011.42 3.427c0 1.24-.474 2.48-1.42 3.427a4.831 4.831 0 01-3.427 1.42c-1.24 0-2.481-.474-3.427-1.42h0L66.03 71.884a4.831 4.831 0 01-1.42-3.427c0-1.24.474-2.48 1.42-3.427a4.831 4.831 0 013.427-1.42z" id="Rectangle" stroke="#D5DFED" fill="#F3F3F3"/>
        <path id="Line" stroke="#FFF" stroke-linecap="round" d="M71 67l11 11"/>
      </g>
      <path d="M133.5 27h-17.176m24.176 0h-2.221m-11.103 7.777H119M32.5 48H15.324M9.5 48H5.279m31.897 8.777H29" id="Line-8" stroke="#E3EBF7" stroke-width="2.5" stroke-linecap="round" stroke-linejoin="round"/>
    </g>
  </g>
</svg>
