<?xml version="1.0" encoding="UTF-8"?>
<svg xmlns="http://www.w3.org/2000/svg" xmlns:xlink="http://www.w3.org/1999/xlink" viewBox="0 0 100 120">
  <title>PDF</title>
  <defs>
    <filter x="-10%" y="-15%" width="120%" height="120%" filterUnits="objectBoundingBox" id="filter-2">
      <feOffset dy="-2" in="SourceAlpha" result="shadowOffsetOuter1"/>
      <feGaussianBlur stdDeviation="1" in="shadowOffsetOuter1" result="shadowBlurOuter1"/>
      <feComposite in="shadowBlurOuter1" in2="SourceAlpha" operator="out" result="shadowBlurOuter1"/>
      <feColorMatrix values="0 0 0 0 0 0 0 0 0 0 0 0 0 0 0 0 0 0 0.0909637238 0" in="shadowBlurOuter1"/>
    </filter>
    <path d="M60 0h25.293C93.025 0 100 6.975 100 14.707V40L60 0z" id="path-1"/>
  </defs>
  <g id="Components/File/PDF" stroke="none" stroke-width="1" fill="none" fill-rule="evenodd">
    <path d="M60 0l40 40v66c0 7.732-6.268 14-14 14H14c-7.732 0-14-6.268-14-14V14C0 6.268 6.268 0 14 0h46z" id="Combined-Shape" fill="#E94D4D"/>
    <path d="M46.633 44c-2.621 0-4.777 2.156-4.777 4.778 0 3.259 1.81 7.305 3.717 11.108-1.49 4.666-3.182 9.666-5.345 13.886-4.427 1.737-8.376 3.028-10.75 4.942a1.433 1.433 0 00-.104.119A4.838 4.838 0 0028 82.223C28 84.842 30.156 87 32.778 87c1.278 0 2.512-.477 3.404-1.389.03-.023.06-.048.09-.074 1.747-2.087 3.807-5.872 5.643-9.332 4.231-1.664 8.666-3.358 12.945-4.374 3.124 2.517 7.643 4.18 11.362 4.18 2.622 0 4.778-2.156 4.778-4.778 0-2.621-2.156-4.777-4.778-4.777-2.982 0-7.316 1.064-10.63 2.18-2.686-2.522-5.154-5.672-6.928-9.019 1.267-3.904 2.747-7.81 2.747-10.84 0-2.62-2.156-4.777-4.778-4.777zm0 2.867a1.89 1.89 0 011.911 1.91c0 1.435-.767 4.075-1.657 6.914-1.188-2.762-2.165-5.411-2.165-6.913a1.89 1.89 0 011.911-1.911zm.822 16.349a38.34 38.34 0 004.956 6.3c-2.833.775-5.6 1.768-8.33 2.807 1.318-2.977 2.374-6.066 3.374-9.107zm18.767 6.106a1.89 1.89 0 011.911 1.911 1.89 1.89 0 01-1.91 1.911c-2.154 0-5.214-.971-7.66-2.329 2.808-.794 5.872-1.493 7.66-1.493zm-28.517 8.555c-1.344 2.399-2.68 4.637-3.613 5.764-.32.305-.744.492-1.314.492a1.89 1.89 0 01-1.911-1.91c0-.505.214-1.007.507-1.33 1.121-.867 3.56-1.906 6.33-3.016z" id="acrobat-shape" fill="#FFF" fill-rule="nonzero"/>
    <g id="Path" transform="rotate(180 80 20)">
      <use fill="#000" filter="url(#filter-2)" xlink:href="#path-1"/>
      <use fill-opacity=".4" fill="#FFF" xlink:href="#path-1"/>
    </g>
  </g>
</svg>
